<?xml version="1.0" standalone="no"?>
<!DOCTYPE svg PUBLIC "-//W3C//DTD SVG 1.1//EN" "http://www.w3.org/Graphics/SVG/1.1/DTD/svg11.dtd" >
<svg xmlns="http://www.w3.org/2000/svg">
<metadata>
This is a custom SVG webfont generated by Font Squirrel.
Copyright   : Typeface  your company 2009 All Rights Reserved
Designer    : Lauren Thompson  nymphontyahoocom
</metadata>
<defs>
<font id="ChampagneLimousinesBoldItalic" horiz-adv-x="1148" >
<font-face units-per-em="2048" ascent="1638" descent="-410" />
<missing-glyph horiz-adv-x="508" />
<glyph unicode=" "  horiz-adv-x="508" />
<glyph unicode="&#x09;" horiz-adv-x="508" />
<glyph unicode="&#xa0;" horiz-adv-x="508" />
<glyph unicode="!" horiz-adv-x="327" d="M72 96q8 45 45.5 76.5t82.5 31.5q44 0 70 -32q21 -24 21 -56q0 -10 -2 -20q-8 -45 -45.5 -76.5t-81.5 -31.5q-45 0 -71 32q-21 24 -21 56q0 10 2 20zM150 334l192 1087h141l-192 -1087h-141z" />
<glyph unicode="&#x22;" horiz-adv-x="450" d="M204 846l101 573h141l-101 -573h-141zM404 846l101 573h140l-101 -573h-140z" />
<glyph unicode="#" horiz-adv-x="1100" d="M86 444l43 140h272l59 196h-274l43 140h273l133 443h141l-132 -443h194l133 443h141l-132 -443h273l-42 -140h-274l-58 -196h274l-43 -140h-274l-133 -444h-141l133 444h-195l-133 -444h-141l133 444h-273zM543 584h194l59 196h-195z" />
<glyph unicode="$" horiz-adv-x="1109" d="M252 430l141 50q-1 -19 -1 -37q0 -100 43 -151q50 -61 95 -66l95 541q-68 32 -118 93q-53 63 -53 147q0 24 5 51q21 114 117 197q82 70 149 77l25 142h141l-26 -145q56 -11 108 -73q38 -44 51 -133l-133 -50q-9 104 -51 114l-58 -331q95 -39 167 -127q71 -86 71 -198 q0 -33 -6 -68q-28 -157 -159 -267q-109 -95 -208 -106l-22 -123h-141l21 121q-103 8 -184 108q-69 84 -69 222v12zM597 1058q-2 -13 -2 -26q0 -43 26 -75q27 -32 31 -35l48 271q-5 0 -43 -34q-49 -41 -60 -101zM671 229q38 6 105 63q83 70 101 171q4 22 4 43q0 72 -45 126 q-48 60 -80 76z" />
<glyph unicode="%" horiz-adv-x="1096" d="M95 70l1020 1164l101 -79l-1020 -1165zM218 866q17 95 95.5 162t173.5 67t149 -67q42 -51 42 -118q0 -21 -4 -44q-16 -94 -94.5 -161t-173.5 -67t-149 67q-43 52 -43 120q0 20 4 41zM356 866q-1 -8 -1 -16q0 -27 16 -48q21 -26 59 -26q37 0 68.5 26.5t37.5 63.5q2 9 2 18 q0 26 -17 46q-22 27 -59 27q-38 0 -68.5 -26.5t-37.5 -64.5zM638 357q16 95 94.5 161.5t173.5 66.5q94 0 148 -67q43 -51 43 -119q0 -20 -4 -42q-17 -94 -95 -160.5t-172 -66.5q-95 0 -150 67q-42 50 -42 117q0 21 4 43zM776 357q-2 -9 -2 -18q0 -25 17 -45q21 -26 59 -26 q37 0 68.5 26t38.5 63q1 8 1 15q0 29 -17 50q-23 26 -59 26q-38 0 -69 -26.5t-37 -64.5z" />
<glyph unicode="&#x26;" horiz-adv-x="1030" d="M74 419q31 179 180 312q101 91 159 110q-86 120 -86 231q0 24 4 48q23 130 133 224t242 94q133 0 210 -94q44 -50 57 -142l-135 -50q-14 65 -37 95q-44 52 -119 52q-74 0 -135.5 -52t-75.5 -127q-3 -17 -3 -34q0 -54 33 -98q43 -56 85 -73t144 -18l-24 -135l-89 -2 q-179 -33 -281 -126t-123 -215q-5 -29 -5 -56q0 -86 54 -153q71 -86 194 -86q121 0 223 86q59 51 78 85q6 -3 7 -3l-4 3q-41 25 -93 91q-31 35 -43 42q-10 6 -22 6q-7 0 -14 -1q-17 -5 -28 -20q-8 -12 -10 -22q-1 -6 -1 -13q2 -17 13 -24q8 -5 28 -5q13 0 73 9l-37 -133 q-50 -13 -75 -13q-42 0 -78 21q-57 36 -63 108q-2 26 2 50q8 46 39 89q51 65 126 85q27 7 51 7q46 0 83 -24q35 -21 81 -81q39 -41 57 -53q16 -10 34 -10q11 0 23 3q33 9 55 37q13 19 17 37q1 10 -1 21q-2 31 -27 48q-15 9 -37 9q-16 0 -79 -17l23 142q55 15 82 15 q54 0 100 -30q69 -44 78 -130q1 -11 1 -22q0 -19 -3 -36q-10 -54 -47 -104q-57 -78 -150 -102q-27 -7 -28 -7q-36 -77 -129 -156q-150 -128 -330 -128q-179 0 -284 127q-80 98 -80 227q0 39 7 81z" />
<glyph unicode="'" horiz-adv-x="251" d="M204 846l101 573h141l-101 -573h-141z" />
<glyph unicode="(" horiz-adv-x="681" d="M178 693q73 417 326 659q79 77 175 136h210q-191 -104 -309 -232q-170 -187 -229 -519l-6 -44q-5 -22 -9 -43q-21 -121 -21 -222q0 -179 66 -298q74 -128 227 -232h-210q-74 59 -127 136q-116 168 -116 419q0 112 23 240z" />
<glyph unicode=")" horiz-adv-x="681" d="M37 -102q191 104 309 232q171 187 230 520l6 43q5 23 9 44q21 118 21 218q0 181 -68 301q-72 128 -227 232h211q74 -59 126 -136q117 -168 117 -420q0 -111 -23 -239q-73 -417 -326 -659q-80 -77 -174 -136h-211z" />
<glyph unicode="*" horiz-adv-x="700" d="M256 1026l172 106l-135 106l102 116l109 -87l27 152h139l-26 -151l139 86l60 -116l-171 -106l134 -106l-101 -116l-109 87l-27 -151h-139l27 152l-140 -88z" />
<glyph unicode="+" horiz-adv-x="1098" d="M85 464v140h394v394h140v-394h394v-140h-394v-394h-140v394h-394z" />
<glyph unicode="," horiz-adv-x="419" d="M-33 -186l173 391h217l-257 -391h-133z" />
<glyph unicode="-" horiz-adv-x="640" d="M130 464l25 140h544l-25 -140h-544z" />
<glyph unicode="." horiz-adv-x="327" d="M72 96q8 45 45.5 76.5t82.5 31.5q44 0 70 -32q21 -24 21 -56q0 -10 -2 -20q-8 -45 -45.5 -76.5t-81.5 -31.5q-45 0 -71 32q-21 24 -21 56q0 10 2 20z" />
<glyph unicode="/" horiz-adv-x="697" d="M-52 0l894 1421h158l-895 -1421h-157z" />
<glyph unicode="0" horiz-adv-x="1095" d="M174 699q58 331 237 526.5t389 195.5q209 0 318 -195q71 -128 71 -313q0 -99 -20 -214q-59 -332 -237 -527.5t-387 -195.5q-210 0 -320 196q-72 127 -72 312q0 99 21 215zM319 699q-19 -108 -19 -197q0 -140 48 -231q79 -149 222 -149q142 0 273.5 149t181.5 428 q19 106 19 193q0 142 -50 234q-79 150 -221 150q-143 0 -274 -149.5t-180 -427.5z" />
<glyph unicode="1" horiz-adv-x="1106" d="M185 0l25 141h301l183 1038l-123 -72l-98 82l361 232h43l-226 -1280h295l-25 -141h-736z" />
<glyph unicode="2" horiz-adv-x="1132" d="M170 0q717 862 768 930.5t61 125.5q5 29 4 59q-5 93 -75 143q-50 33 -111 33q-27 0 -55 -6q-95 -21 -158 -100q-36 -44 -60 -118l-136 21q27 102 84 173q107 131 261 164q47 11 90 11q104 0 185 -58q116 -82 123 -230q3 -53 -6 -102q-15 -88 -78.5 -174.5t-601.5 -730.5 h521l-25 -141h-791z" />
<glyph unicode="3" horiz-adv-x="1104" d="M183 377l149 50q-1 -20 -1 -39q0 -113 52 -177q71 -85 191 -85q122 0 222.5 85.5t121.5 207.5q5 30 5 58q0 86 -51 156q-69 92 -236 125l-92 2l25 139q105 1 152.5 18.5t109.5 73t75 129.5q3 17 3 33q0 53 -33 92q-42 51 -115 51t-135 -51q-33 -30 -71 -97l-121 52 q46 95 108 146q111 94 244 94q134 0 211 -94q60 -73 60 -168q0 -28 -5 -58q-24 -134 -174 -279q45 -16 115 -108q77 -102 77 -230q0 -41 -8 -84q-32 -181 -182.5 -309t-331.5 -128q-180 0 -286 128q-79 98 -79 252v15z" />
<glyph unicode="4" horiz-adv-x="1126" d="M198 349l829 1072h85l-164 -932h129l-25 -140h-129l-62 -349h-141l62 349h-584zM467 489h340l100 571z" />
<glyph unicode="5" horiz-adv-x="1107" d="M123 213l119 109q65 -131 184 -169q54 -18 107 -18q87 0 179 44q148 72 219 219q27 56 37 111q5 30 5 59q0 56 -20 111q-48 135 -187 187q-60 22 -136 22q-104 0 -256 -45l-76 79l239 445l10 54h488l-25 -140h-369l-142 -263l37 6q59 11 113 11q100 0 184 -32 q191 -69 258 -256q28 -77 28 -156q0 -41 -8 -83q-14 -77 -50 -153q-99 -203 -304 -304q-125 -61 -246 -61q-77 0 -152 25q-154 50 -236 198z" />
<glyph unicode="6" horiz-adv-x="1103" d="M211 390l3 16q46 211 207 453t355 468l77 94h176q-75 -97 -118 -147q-217 -247 -392 -508q33 34 173 34q170 0 269 -120q75 -91 75 -213q0 -37 -7 -77q-30 -169 -170.5 -289t-310.5 -120q-168 0 -267 120q-77 92 -77 213q0 37 7 76zM356 390q-4 -25 -4 -49q0 -78 48 -137 q64 -77 173 -77t200.5 77t110.5 186q4 25 4 49q0 79 -48 139q-64 77 -173 77t-200.5 -77.5t-110.5 -187.5z" />
<glyph unicode="7" horiz-adv-x="1102" d="M251 0q53 244 214.5 486t352 464t232.5 331h-706l25 140h864q-52 -263 -273.5 -515.5t-371.5 -482t-194 -423.5h-143z" />
<glyph unicode="8" horiz-adv-x="1097" d="M151 419q32 180 180 314q103 92 153 108q1 -1 2 -1t1 1q2 8 -45 69q-40 53 -40 136q0 34 7 74q23 131 133 225.5t245 94.5h31q134 0 211 -94q60 -73 60 -168q0 -28 -5 -58q-24 -134 -109 -210q-68 -61 -70 -69q0 -1 1 -1t2 1q46 -16 116 -108q77 -102 77 -230 q0 -41 -8 -84q-32 -181 -181.5 -309t-331.5 -128q-18 0 -34 1q-17 -1 -36 -1q-180 0 -286 128q-80 98 -80 228q0 39 7 81zM295 419q-5 -29 -5 -56q0 -86 54 -151q70 -86 191 -86q17 0 34 1h4q16 -1 32 -1q121 0 222 85.5t123 207.5q5 29 5 56q0 87 -52 157q-66 91 -221 123 q-166 -32 -267 -123q-99 -91 -120 -213zM554 1120q-3 -18 -3 -36q0 -52 31 -94q43 -55 83 -72q21 -8 44 -12q22 4 46 12q46 17 107.5 72.5t75.5 129.5q3 17 3 33q0 53 -33 92q-42 51 -115 51q-5 0 -13 -1h-7q-5 1 -11 1q-73 0 -134 -51t-74 -125z" />
<glyph unicode="9" horiz-adv-x="1103" d="M320 -19q73 97 118 147q217 248 392 508q-33 -34 -174 -34q-169 0 -267 120q-76 92 -76 213q0 37 7 77q30 169 170.5 289t309.5 120t269 -120q76 -92 76 -213q0 -37 -7 -76l-3 -16q-46 -211 -207.5 -453t-354.5 -468q-35 -40 -78 -94h-175zM465 1012q-4 -25 -4 -49 q0 -78 49 -138q63 -77 171 -77q110 0 201.5 77.5t110.5 186.5q4 25 4 49q0 79 -49 137q-64 77 -174 77q-108 0 -199 -76.5t-110 -186.5z" />
<glyph unicode=":" horiz-adv-x="327" d="M72 96q8 45 45.5 76.5t82.5 31.5q44 0 70 -32q21 -24 21 -56q0 -10 -2 -20q-8 -45 -45.5 -76.5t-81.5 -31.5q-45 0 -71 32q-21 24 -21 56q0 10 2 20zM176 689q8 45 45.5 76t82.5 31q44 0 70 -31q21 -24 21 -56q0 -10 -2 -20q-7 -45 -45 -76.5t-82 -31.5q-45 0 -71 31 q-20 25 -20 59q0 8 1 18z" />
<glyph unicode=";" horiz-adv-x="376" d="M-33 -186l173 391h217l-257 -391h-133zM161 689q8 45 45.5 76t82.5 31q44 0 71 -31q20 -24 20 -56q0 -10 -2 -20q-8 -45 -45.5 -76.5t-81.5 -31.5q-45 0 -71 31q-21 25 -21 57q0 10 2 20z" />
<glyph unicode="&#x37e;" horiz-adv-x="376" d="M-33 -186l173 391h217l-257 -391h-133zM161 689q8 45 45.5 76t82.5 31q44 0 71 -31q20 -24 20 -56q0 -10 -2 -20q-8 -45 -45.5 -76.5t-81.5 -31.5q-45 0 -71 31q-21 25 -21 57q0 10 2 20z" />
<glyph unicode="&#x3c;" horiz-adv-x="1140" d="M89 629l963 460v-160l-650 -300l650 -300v-160z" />
<glyph unicode="=" horiz-adv-x="1098" d="M85 600v141h928v-141h-928zM89 328v141h920v-141h-920z" />
<glyph unicode="&#x3e;" horiz-adv-x="1140" d="M89 169v160l650 300l-650 300v160l963 -460z" />
<glyph unicode="?" horiz-adv-x="830" d="M231 993v17q0 34 3 52q17 97 107 200q110 127 268 154q38 6 72 6q112 0 198 -67q110 -89 110 -244q0 -35 -6 -68q-20 -111 -104 -210q-70 -79 -230 -191q-98 -76 -129 -112q-37 -42 -46 -92q-3 -15 -3 -30q1 -38 14 -60l-113 -110q-45 58 -44 146q-2 28 4 57 q16 92 86 171q56 64 200 165q119 94 157 138q55 60 67 130q4 20 3 42q0 95 -69 150q-56 43 -124 43q-21 0 -42 -4q-95 -16 -164 -95q-56 -64 -67 -127q-2 -11 -2 -46v-26zM293 96q8 45 46 76.5t82 31.5t70 -32q21 -24 21 -56q0 -10 -2 -20q-8 -45 -45.5 -76.5t-81.5 -31.5 t-71 31q-21 25 -21 57q0 10 2 20z" />
<glyph unicode="@" horiz-adv-x="1341" d="M150 534q44 254 257 435.5t468 181.5t403 -181q113 -140 113 -323q0 -55 -10 -113q-21 -117 -130.5 -251t-221.5 -134q-14 0 -27 2q-86 19 -86 101q0 7 1 14l-1 -10q-68 -60 -209 -60t-224 100q-63 77 -63 176q0 31 6 63q25 142 142.5 242t258.5 100t188 -60l8 49h133 l-101 -575q3 -11 12 -11q21 0 94 82.5t89 171.5q8 46 8 89q0 144 -90 253q-117 143 -316 143q-200 0 -366.5 -142.5t-201.5 -342.5q-8 -46 -8 -89q0 -143 90 -252q116 -141 316 -141q137 0 227 51l76 -99q-159 -85 -327 -85q-255 0 -404 181q-114 139 -114 321q0 54 10 113z M563 535q-3 -20 -3 -38q0 -60 38 -106q49 -60 135 -60q84 0 155 60q49 42 70 93l18 104q-3 52 -36 93q-51 61 -135 61q-86 0 -156.5 -60t-85.5 -147z" />
<glyph unicode="A" horiz-adv-x="1162" d="M-1 0l773 1421h123l265 -1421h-149l-112 597h-424l-326 -597h-150zM551 737h322l-83 444z" />
<glyph unicode="B" horiz-adv-x="1062" d="M112 0l251 1421h437q130 0 204 -91q57 -70 57 -162q0 -27 -5 -57q-23 -128 -130 -219q34 -13 88 -81q88 -107 88 -249q0 -42 -8 -87q-35 -197 -198 -336q-137 -116 -309 -139h-475zM278 141h282q137 0 251.5 97.5t139.5 236.5q6 32 6 62q0 99 -62 174q-80 98 -217 98 h-282zM421 950h312q71 7 111 41q57 49 70 120q3 16 3 31q0 52 -32 90q-41 51 -111 50h-295z" />
<glyph unicode="C" horiz-adv-x="1379" d="M199 711q53 300 303 513.5t552 213.5q281 0 478 -214l-123 -94q-158 165 -380 165q-242 0 -443.5 -171t-244.5 -413q-10 -57 -10 -109q0 -174 109 -306q141 -171 383 -171q222 0 438 166l89 -95q-271 -212 -552 -212q-302 0 -477 212q-134 163 -134 379q0 66 12 136z" />
<glyph unicode="D" horiz-adv-x="1212" d="M112 0l251 1421h284q347 -2 507 -196q133 -164 133 -379q0 -65 -12 -135q-53 -302 -302 -515q-229 -194 -577 -196h-284zM278 143h142q279 0 466 154q202 171 244 414q10 57 10 109q0 173 -108 305q-133 153 -412 153h-142z" />
<glyph unicode="E" horiz-adv-x="967" d="M112 0l251 1421h743l-25 -140h-602l-88 -500h602l-25 -141h-602l-88 -499h602l-25 -141h-743z" />
<glyph unicode="F" horiz-adv-x="822" d="M112 0l251 1421h658l-25 -140h-517l-88 -500h517l-25 -141h-517l-113 -640h-141z" />
<glyph unicode="G" horiz-adv-x="1391" d="M199 711q53 300 303 513.5t552 213.5q281 0 478 -214l-123 -94q-158 165 -380 165q-242 0 -443.5 -171t-244.5 -413q-10 -57 -10 -109q0 -174 109 -306q141 -171 383 -171q208 0 375 118l76 431h140l-86 -487q-248 -203 -530 -203q-302 0 -477 212q-134 164 -134 379 q0 66 12 136z" />
<glyph unicode="H" horiz-adv-x="1101" d="M94 0l251 1421h141l-113 -640h631l113 640h141l-251 -1421h-141l113 640h-631l-113 -640h-141z" />
<glyph unicode="I" horiz-adv-x="385" d="M122 0l251 1421h141l-251 -1421h-141z" />
<glyph unicode="J" horiz-adv-x="360" d="M-109 -271l25 141q89 0 136 39q43 37 56 107l247 1405h141l-249 -1415q-21 -117 -114.5 -197t-241.5 -80z" />
<glyph unicode="K" horiz-adv-x="1056" d="M112 0l251 1421h141l-103 -580l508 580h171l-470 -541l460 -880h-171l-398 760l-143 -163l-105 -597h-141z" />
<glyph unicode="L" horiz-adv-x="822" d="M112 0l251 1421h141l-226 -1280h517l-25 -141h-658z" />
<glyph unicode="M" horiz-adv-x="1456" d="M94 0l251 1421h159l366 -622l585 622h159l-251 -1421h-141l214 1212l-517 -549l-90 -97l-57 96l-323 550l-214 -1212h-141z" />
<glyph unicode="N" horiz-adv-x="1358" d="M109 0l251 1421h145l643 -1196l211 1196h141l-251 -1421h-166l-627 1167l-206 -1167h-141z" />
<glyph unicode="O" horiz-adv-x="1581" d="M187 713q54 301 305 514.5t552 213.5q302 1 478 -213q135 -163 135 -378q0 -66 -13 -137q-53 -303 -304 -516t-553 -213q-301 0 -477 213q-135 164 -135 381q0 65 12 135zM329 713q-10 -56 -9 -108q0 -175 108 -307q141 -172 384 -173q243 0 445.5 172.5t244.5 415.5 q10 56 10 109q0 173 -109 305q-141 172 -384 172q-242 0 -444.5 -172t-245.5 -414z" />
<glyph unicode="P" horiz-adv-x="992" d="M112 0l251 1421h390q165 -22 260 -139q88 -108 88 -248q0 -42 -8 -87q-35 -198 -198.5 -337.5t-360.5 -139.5h-198l-83 -470h-141zM361 612h198q138 0 253 98t140 237q6 32 6 61q0 98 -62 174q-81 98 -219 98h-198z" />
<glyph unicode="Q" horiz-adv-x="1581" d="M187 713q54 301 305 514.5t552 213.5q302 0 478 -213q135 -164 135 -378q0 -66 -13 -137q-53 -303 -303 -515q-182 -155 -283 -176l73 -48q62 -36 85 -44q13 -3 27 -3q21 0 46 12q35 18 52 55q6 12 16 51h141q-16 -61 -29 -88q-42 -92 -133 -139q-59 -31 -117 -31 q-33 0 -64 10q-53 14 -138 76q-74 44 -106 52q-19 6 -38 6q-35 0 -70 -18q-56 -29 -82 -86q-4 -8 -13 -42h-141q16 58 26 82q33 64 92 129q-240 21 -374 202q-136 163 -136 380q0 65 12 135zM329 713q-10 -56 -10 -108q0 -174 109 -307q142 -173 384 -173q243 0 445.5 172.5 t244.5 415.5q10 56 10 109q0 173 -108 305q-142 172 -385 172q-242 0 -444.5 -172t-245.5 -414z" />
<glyph unicode="R" horiz-adv-x="996" d="M112 0l251 1421h390q165 -22 260 -139q88 -108 88 -248q0 -42 -8 -87q-35 -198 -198 -337q-114 -96 -199 -116l234 -494h-171l-218 470h-205l-83 -470h-141zM361 612h198q138 0 253 98t140 237q6 32 6 61q0 98 -62 174q-81 98 -219 98h-198z" />
<glyph unicode="S" horiz-adv-x="976" d="M121 375l144 48q-1 -20 -1 -38q0 -112 52 -175q72 -86 194 -86t224 86.5t123 208.5q5 28 5 54q0 87 -54 154q-66 80 -173 127q-142 50 -217 141q-57 69 -58 163q0 30 6 62q23 130 133 224t243 94q131 0 209 -94q42 -50 57 -142l-137 -50q-12 65 -37 95q-43 52 -117 52 t-135.5 -52t-74.5 -127q-3 -18 -3 -34q0 -53 32 -93q44 -53 131 -97q160 -54 256 -171q80 -97 80 -225q0 -39 -8 -81q-32 -180 -181.5 -307.5t-328.5 -127.5q-181 0 -284 128q-80 97 -80 248v15z" />
<glyph unicode="T" horiz-adv-x="891" d="M258 1281l25 140h827l-25 -140h-343l-226 -1281h-140l226 1281h-344z" />
<glyph unicode="U" horiz-adv-x="1174" d="M194 463l169 958h141l-169 -958q-6 -31 -5 -61q0 -98 61 -174q81 -99 220 -99q138 0 253 98.5t139 235.5l169 958h141l-178 -1009q-53 -168 -190 -285q-163 -139 -359 -139q-198 0 -313 139q-88 106 -87 247q0 43 8 89z" />
<glyph unicode="V" horiz-adv-x="1180" d="M250 1420h149l226 -1199l655 1200h149l-773 -1421h-138z" />
<glyph unicode="W" horiz-adv-x="1659" d="M251 1421h145l105 -1166l445 768h128l174 -766l517 1164h146l-632 -1421h-124l-183 805l-467 -805h-125z" />
<glyph unicode="X" horiz-adv-x="1089" d="M15 0l586 778l-258 643h161l202 -504l380 504h162l-487 -643l313 -778h-161l-257 638l-481 -638h-160z" />
<glyph unicode="Y" horiz-adv-x="1185" d="M283 1421h161l277 -691l521 691h162l-640 -848l-101 -573h-141l101 573z" />
<glyph unicode="Z" horiz-adv-x="1123" d="M84 0l965 1281h-620l25 140h863l-967 -1280h784l-25 -141h-1025z" />
<glyph unicode="[" horiz-adv-x="437" d="M35 -114l293 1662h327l-25 -140h-186l-243 -1382h186l-25 -140h-327z" />
<glyph unicode="\" horiz-adv-x="697" d="M199 1421h158l392 -1421h-157z" />
<glyph unicode="]" horiz-adv-x="437" d="M35 -114l25 140h186l243 1382h-186l25 140h327l-293 -1662h-327z" />
<glyph unicode="^" horiz-adv-x="919" d="M98 904l299 517h125l298 -517h-162l-198 344l-199 -344h-163z" />
<glyph unicode="_" horiz-adv-x="823" d="M-63 -102l25 140h913l-25 -140h-913z" />
<glyph unicode="`" horiz-adv-x="594" d="M296 1252h250l155 -223h-153z" />
<glyph unicode="a" d="M157 474q37 207 208.5 352.5t377.5 145.5q207 0 324 -128l9 53h141l-158 -897h-141l18 105q-161 -129 -368 -129q-206 0 -326 146q-93 112 -93 260q0 45 8 92zM302 474q-6 -33 -5 -64q1 -105 65 -185q84 -103 231 -103q146 0 269 104q90 77 127 176l25 144 q-1 100 -65 178q-85 104 -231 104t-268 -104t-148 -250z" />
<glyph unicode="b" horiz-adv-x="1157" d="M99 0l251 1421h141l-102 -575q161 126 367 126t326 -146q93 -112 94 -260q0 -44 -9 -92q-37 -206 -208.5 -352t-377.5 -146t-323 127l-18 -103h-141zM310 397q1 -96 65 -171q86 -104 232 -104t267.5 103t147.5 249q6 33 6 64q0 105 -66 186q-85 104 -231 104t-268 -104 q-91 -77 -126 -174z" />
<glyph unicode="c" horiz-adv-x="1033" d="M135 475q37 206 208.5 351.5t377.5 145.5q207 0 326 -146q25 -29 63 -95l-152 -52q-20 32 -31 46q-85 103 -231 103t-267.5 -103.5t-147.5 -249.5q-6 -34 -5 -65q0 -106 65 -185q84 -103 230 -103t269 104q15 13 47 45l132 -53q-60 -66 -95 -95q-171 -147 -378 -147 q-206 0 -326 146q-93 112 -93 261q0 44 8 92z" />
<glyph unicode="d" d="M157 474q37 207 208.5 352.5t377.5 145.5q207 0 324 -128l101 577h141l-250 -1421h-141l18 105q-161 -129 -368 -129q-206 0 -326 146q-93 112 -93 260q0 45 8 92zM302 474q-6 -33 -5 -64q1 -105 65 -185q84 -103 231 -103q146 0 269 104q90 77 127 176l25 144 q-1 100 -65 178q-85 104 -231 104t-268 -104t-148 -250z" />
<glyph unicode="e" horiz-adv-x="1068" d="M135 474q37 207 208.5 352.5t377.5 145.5q207 0 327 -146q79 -96 79 -237q0 -49 -10 -104h-837q-6 -36 -5 -69q1 -112 65 -191q84 -103 231 -103q146 0 269 104q21 18 57 55l132 -49q-48 -62 -106 -109q-170 -147 -377 -147q-206 0 -326 146q-93 112 -93 260q0 45 8 92z M336 627h644q-5 38 -53 97q-85 104 -231 104q-147 0 -269 -104q-73 -63 -91 -97z" />
<glyph unicode="f" horiz-adv-x="439" d="M106 0l133 756h-84l25 141h84l35 195q25 107 114 184q93 73 196 73q53 0 136 -30l-70 -131q-56 26 -83 26q-47 0 -98 -39q-43 -37 -56 -91l-33 -187h170l-25 -141h-170l-133 -756h-141z" />
<glyph unicode="g" horiz-adv-x="1109" d="M105 -30l152 53q19 -32 32 -45q85 -104 231 -104q145 0 252.5 80.5t131.5 144.5q-151 -123 -358 -123q-206 0 -327 146q-92 112 -92 260q0 45 8 92q37 207 208.5 352t377.5 145q207 0 324 -127l9 53h141l-120 -679q-35 -201 -203 -343q-172 -147 -378 -147t-327 147 q-24 29 -62 95zM280 474q-6 -34 -6 -66q0 -105 65 -184q85 -103 232 -103q146 0 268 104q87 74 126 171l27 154q-3 97 -65 174q-85 104 -231 104t-268 -104t-148 -250z" />
<glyph unicode="h" horiz-adv-x="896" d="M94 0l251 1421h141l-93 -523q60 49 209 49q160 0 244 -102q65 -79 66 -190q0 -31 -6 -65l-104 -590h-141l103 582q4 21 4 40q0 66 -44 118q-56 66 -147.5 66t-169.5 -64q-35 -30 -51 -54l-121 -688h-141z" />
<glyph unicode="i" horiz-adv-x="375" d="M117 0l158 897h140l-158 -897h-140zM270 1085q8 44 45.5 75.5t82.5 31.5q44 0 70 -32q20 -24 21 -55q0 -10 -2 -20q-8 -46 -45.5 -77.5t-81.5 -31.5q-45 0 -71 32q-20 24 -21 56q0 10 2 21z" />
<glyph unicode="j" horiz-adv-x="339" d="M-46 -196l25 139q105 12 118 87l153 867h140l-153 -865q-36 -208 -283 -228zM244 1085q8 44 45.5 75.5t82.5 31.5q44 0 70 -32q21 -24 21 -55q0 -10 -2 -20q-8 -46 -45.5 -77.5t-81.5 -31.5q-45 0 -71 32q-21 24 -21 56q0 10 2 21z" />
<glyph unicode="k" horiz-adv-x="700" d="M99 0l221 1252h141l-103 -582l224 227h180l-285 -289l237 -608h-168l-182 492l-45 -46l-79 -446h-141z" />
<glyph unicode="l" horiz-adv-x="361" d="M110 0l251 1421h141l-251 -1421h-141z" />
<glyph unicode="m" horiz-adv-x="1174" d="M99 0l158 897h141q35 49 147 49q116 0 193 -88q109 88 225 88t184 -81q50 -63 50 -146q0 -21 -3 -43l-119 -676h-141l125 707q2 20 -29 58q-35 40 -92 40q-58 0 -106 -40.5t-59 -101.5l-117 -663h-139l125 707q0 20 -31 58q-34 40 -91 40t-105 -40q-42 -35 -55 -85 l-120 -680h-141z" />
<glyph unicode="n" horiz-adv-x="916" d="M99 0l158 897h141l-1 -8q68 58 220 58q161 0 245 -102q65 -79 65 -187q0 -32 -6 -68l-104 -590h-140l103 582q4 21 4 40q0 68 -44 118q-56 66 -148 66t-170 -64q-44 -37 -64 -70l-118 -672h-141z" />
<glyph unicode="o" horiz-adv-x="1139" d="M155 474q37 207 208.5 352.5t377.5 145.5q207 0 327 -146q91 -111 91 -258q0 -46 -9 -94q-36 -206 -206.5 -352t-377.5 -146q-206 0 -326 146q-93 112 -93 260q0 45 8 92zM300 474q-6 -33 -5 -64q0 -105 65 -185q84 -103 231 -103q146 0 268 103t147 249q6 34 6 66 q0 104 -65 184q-85 104 -231 104t-268 -104t-148 -250z" />
<glyph unicode="p" horiz-adv-x="1136" d="M36 -318l214 1215h141l-9 -51q161 125 367 125t326 -145q93 -112 93 -260q0 -44 -8 -92q-37 -206 -208.5 -352t-377.5 -146t-278 88q-46 56 -51 56q-1 0 -1 -1q0 -2 7 -16l-74 -421h-141zM303 397q1 -97 65 -172q85 -104 231 -104t268 103t148 250q6 33 6 64 q0 106 -66 186q-85 104 -231 104t-268 -104q-91 -77 -126 -174z" />
<glyph unicode="q" horiz-adv-x="1133" d="M143 474q37 207 208.5 352t377.5 145q207 0 324 -127l9 53h141l-214 -1215h-141l74 423q-161 -129 -368 -129q-206 0 -326 146q-93 112 -93 260q0 45 8 92zM288 474q-6 -34 -6 -66q0 -105 65 -184q85 -103 232 -103q146 0 268 104q91 77 128 177l25 144q-1 100 -65 178 q-85 104 -231 104t-268 -104t-148 -250z" />
<glyph unicode="r" horiz-adv-x="475" d="M77 0l158 897h141l-17 -95q89 75 199 108l54 -135q-101 -19 -168 -77q-117 -99 -145 -236l-81 -462h-141z" />
<glyph unicode="s" horiz-adv-x="687" d="M106 287l146 36q-6 -35 -6 -63q0 -53 22 -80q34 -41 91 -41t105.5 41t59.5 100q2 12 2 24q0 41 -27 73q-20 24 -90 75q-91 54 -124 95q-43 52 -43 121q0 21 4 43q16 95 96.5 163.5t176.5 68.5t148 -64q40 -49 40 -109q0 -17 -3 -34l-5 -26l-132 -50v25q0 74 -16 94 q-19 24 -57 24t-70 -27.5t-38 -64.5q-2 -9 -2 -18q0 -27 17 -47q16 -20 73 -60q101 -61 141 -110q52 -63 51 -145q0 -25 -4 -51q-21 -117 -116.5 -199t-211.5 -82t-183 82q-50 62 -50 147q0 28 5 59z" />
<glyph unicode="t" horiz-adv-x="544" d="M165 756l25 141h170l62 355h140l-62 -355h170l-25 -141h-170l-133 -756h-140l133 756h-170z" />
<glyph unicode="u" horiz-adv-x="916" d="M148 346l98 552h141l-96 -545q-4 -21 -4 -41q0 -66 43 -117q55 -67 155 -67q92 0 170.5 66t95.5 159l96 545h141l-98 -552q-30 -155 -150 -256q-119 -102 -279 -102q-170 0 -253 101q-65 79 -65 190q0 32 5 67z" />
<glyph unicode="v" horiz-adv-x="876" d="M158 897h158l162 -663l399 663h158l-528 -897h-141z" />
<glyph unicode="w" horiz-adv-x="1136" d="M158 897h155l77 -634l237 492h148l59 -492l306 634h155l-434 -897h-146l-62 491l-237 -491h-145z" />
<glyph unicode="x" horiz-adv-x="726" d="M1 0l368 488l-211 409h167l147 -272l243 272h168l-355 -410l195 -487h-162l-138 343l-259 -343h-163z" />
<glyph unicode="y" horiz-adv-x="849" d="M56 -317l324 504l-207 710h156l158 -538l350 538h156l-477 -741h-1l-303 -473h-156z" />
<glyph unicode="z" horiz-adv-x="805" d="M62 0l561 745h-407l25 140h650l-562 -744h440l-25 -141h-682z" />
<glyph unicode="{" horiz-adv-x="691" d="M150 539l28 159q42 -4 49 -4q43 0 91 24q88 46 127 133q23 52 33 110q6 34 25 164v12q0 51 8 100q10 59 35 112q46 105 154 160q69 35 137 35q19 0 70 -8l-25 -140q-56 7 -68 7q-32 0 -65 -17q-50 -25 -73 -75q-17 -39 -26 -89q-4 -23 -7 -45v-17q0 -65 -24 -204 q-13 -73 -45 -143q-65 -143 -166 -194q83 -52 98 -194q2 -25 2 -49q0 -46 -8 -93q-28 -160 -53 -222q-5 -22 -9 -45q-7 -38 -7 -70q0 -10 1 -20q4 -49 47 -74q28 -17 61 -17q10 0 68 7l-25 -142q-54 -6 -72 -6q-68 0 -125 35q-88 55 -97 161q-2 20 -2 40q0 34 6 71 q10 55 32 114q10 33 33 161q7 39 7 76q0 18 -2 35q-9 86 -81 132q-38 24 -81 24q-7 0 -51 -4z" />
<glyph unicode="|" horiz-adv-x="251" d="M34 -119l294 1667h141l-294 -1667h-141z" />
<glyph unicode="}" horiz-adv-x="691" d="M2 -300l25 142q56 -7 67 -7q33 0 67 17q50 25 72 74q18 39 27 90q4 23 7 45q-1 8 -1 17q0 65 25 205q12 72 45 142q65 142 165 194q-82 51 -97 194q-3 26 -3 52q0 45 8 91q29 159 54 221q5 22 9 45q6 35 6 64q0 13 -1 25q-5 50 -46 75q-27 17 -60 17q-11 0 -70 -7l25 140 q53 8 72 8q68 0 125 -35q88 -55 99 -160q1 -15 1 -31q0 -39 -7 -81q-10 -54 -31 -112q-28 -130 -34 -164q-7 -39 -7 -75q0 -18 2 -35q10 -87 81 -133q39 -24 81 -24q7 0 51 4l-28 -159q-42 4 -49 4q-42 0 -91 -24q-88 -46 -127 -132q-23 -52 -33 -111q-23 -128 -25 -161v-20 q0 -48 -8 -94q-10 -59 -33 -111q-48 -106 -156 -161q-69 -35 -137 -35q-18 0 -70 6z" />
<glyph unicode="~" horiz-adv-x="1088" d="M75 605q4 74 22 121q45 107 153 144q26 8 57 8q98 0 252 -88q152 -89 217 -89q7 0 12 2q51 15 72 66q10 26 10 92l143 -24q-5 -74 -23 -121q-46 -108 -153 -143q-26 -9 -57 -9q-97 0 -252 88q-154 88 -216 88q-9 0 -15 -1q-48 -15 -69 -66q-11 -27 -11 -91z" />
<glyph unicode="&#xa1;" horiz-adv-x="327" d="M90 -26l192 1087h141l-192 -1087h-141zM284 1299q8 45 45.5 76.5t81.5 31.5q45 0 71 -31q21 -25 21 -57q0 -10 -2 -20q-8 -45 -45.5 -76.5t-82.5 -31.5q-44 0 -71 31q-20 25 -20 57q0 10 2 20z" />
<glyph unicode="&#xa2;" horiz-adv-x="1125" d="M341 932q30 170 172 291q107 92 205 109l25 142h140l-23 -131q134 -1 232 -120q20 -25 57 -89l-145 -51q-20 32 -28 42q-64 77 -140 78l-96 -540q77 1 169 79q11 9 43 41l127 -49q-61 -66 -89 -91q-140 -119 -274 -120l-23 -131h-140l24 141q-92 17 -166 110 q-77 92 -77 214q0 36 7 75zM481 932q-5 -26 -5 -50q0 -80 50 -140q46 -57 77 -64l90 510q-33 -8 -99 -63q-93 -80 -113 -193z" />
<glyph unicode="&#xa3;" horiz-adv-x="1119" d="M133 53q147 112 178 143q101 99 123 227q3 18 5 35l3 12h-198l24 141h166q-3 37 -29 113q-57 131 -57 254q0 25 2 49q0 18 3 36q23 129 127 232q115 114 271 128h34q130 0 218 -85q87 -88 87 -218q0 -15 -1 -30q-2 -21 -5 -40q-11 -60 -57 -136l-124 43q32 62 39 101 q2 11 3 21q1 11 1 21q0 78 -54 129q-53 53 -131 53q-11 0 -21 -1q-94 -8 -165 -78q-63 -63 -77 -140q-2 -12 -3 -23q-2 -17 -2 -35q0 -77 28 -169q54 -120 60 -225h175l-24 -141h-148l-2 -1q-1 -20 -5 -40q-32 -185 -123 -274h107q64 0 126 -14q77 -18 149 -18q64 0 157 22 l3 -139q-108 -24 -185 -24q-79 0 -158 19q-77 17 -137 17q-52 0 -91 -12q-92 -32 -205 -84z" />
<glyph unicode="&#xa4;" horiz-adv-x="1129" d="M250 670l141 121q-34 53 -34 131q0 38 8 82q24 134 101 212l-99 120l118 100l99 -121q89 64 223 64q135 0 201 -64l141 121l82 -100l-141 -120q36 -53 36 -133q0 -37 -8 -79q-24 -135 -103 -213l100 -121l-118 -98l-99 119q-89 -64 -224 -64q-134 0 -201 64l-140 -120z M505 1004q-4 -24 -4 -45q0 -54 26 -96q8 -14 18 -26q10 -13 21 -23q52 -46 133 -46t149 46q16 10 31 23q13 11 26 25q57 60 72 142q4 22 4 43q0 54 -26 98q-8 14 -17 26q-10 11 -22 21q-53 47 -134 47t-149 -47q-16 -10 -29 -21q-15 -13 -27 -26q-58 -61 -72 -141z" />
<glyph unicode="&#xa5;" horiz-adv-x="1139" d="M260 1421h161l277 -693l521 693h162l-541 -717h226l-25 -140h-301l-7 -37h301l-24 -141h-301l-69 -386h-141l69 386h-301l24 141h301l7 37h-301l25 140h225z" />
<glyph unicode="&#xa6;" horiz-adv-x="251" d="M-1 -318l133 754h141l-133 -754h-141zM173 668l133 753h141l-133 -753h-141z" />
<glyph unicode="&#xa7;" horiz-adv-x="1100" d="M260 119l134 50q14 -66 38 -96q44 -51 118 -51t135.5 52t74.5 127q3 17 3 33q0 53 -33 93q-44 54 -131 98q-159 54 -255 171q-80 97 -80 225q0 39 7 81q31 180 131 264q39 34 46 37q0 6 5 36q23 130 133 224t243 94q131 0 210 -93q42 -50 56 -142l-136 -51q-13 66 -37 96 q-43 51 -117 51t-136 -52t-75 -127q-3 -17 -3 -33q0 -53 33 -93q44 -53 131 -98q159 -54 256 -170q79 -98 79 -226q0 -39 -7 -80q-32 -181 -131 -266q-40 -33 -47 -37q0 -6 -5 -35q-23 -130 -132.5 -224t-242.5 -94q-132 0 -210 93q-43 50 -55 143zM410 902q-5 -29 -5 -55 q0 -87 55 -154q64 -79 172 -126q142 -51 215 -140q34 -40 34 -43q42 32 64 155q5 28 5 53q0 88 -55 155q-66 79 -172 126q-142 51 -216 140q-34 40 -33 41q-43 -30 -64 -152z" />
<glyph unicode="&#xa8;" horiz-adv-x="621" d="M288 1210q8 44 45.5 75.5t82.5 31.5q44 0 70 -31q21 -25 21 -56q0 -10 -2 -20q-8 -46 -45.5 -77.5t-81.5 -31.5q-45 0 -71 31q-21 25 -21 57q0 10 2 21zM542 1210q8 44 45.5 75.5t82.5 31.5q44 0 70 -31q21 -25 21 -56q0 -10 -2 -20q-8 -46 -45.5 -77.5t-81.5 -31.5 q-45 0 -71 31q-21 25 -21 57q0 10 2 21z" />
<glyph unicode="&#xa9;" horiz-adv-x="1096" d="M0 544q0 227 160.5 387.5t387.5 160.5t387.5 -160.5t160.5 -387.5q0 -228 -160.5 -388.5t-387.5 -160.5t-387.5 160.5t-160.5 388.5zM138 544q0 -170 120 -290.5t290 -120.5q171 0 290.5 120.5t119.5 290.5t-119.5 290t-290.5 120q-170 0 -290 -120t-120 -290zM238 544 q0 132 94 225.5t226 93.5t227 -94q18 -20 67 -86l-131 -48l-34 39q-54 53 -129 53q-76 0 -130 -53.5t-54 -129.5t54 -130t130 -54q75 0 129 54q8 7 34 39l131 -50q-50 -66 -67 -85q-95 -94 -227 -94t-226 93.5t-94 226.5z" />
<glyph unicode="&#xaa;" horiz-adv-x="600" d="M259 1159q20 110 105.5 190.5t190.5 80.5t113 -36h123l-87 -494h-123l1 5q-20 -16 -122 -16q-105 0 -163 80q-43 60 -43 137q0 26 5 53zM384 1159q-3 -15 -3 -29q0 -41 22 -71q30 -40 80 -40q49 0 91 40q34 30 47 67l11 65q1 38 -23 69q-28 40 -77 40q-50 0 -93.5 -40.5 t-54.5 -100.5z" />
<glyph unicode="&#xab;" horiz-adv-x="864" d="M133 440l542 489l-35 -202l-319 -287l218 -286l-36 -203zM425 440l547 488l-35 -201l-317 -287l216 -286l-36 -202z" />
<glyph unicode="&#xac;" horiz-adv-x="1102" d="M135 562v140h832v-466h-141v326h-691z" />
<glyph unicode="&#xad;" horiz-adv-x="640" d="M130 464l25 140h544l-25 -140h-544z" />
<glyph unicode="&#xae;" horiz-adv-x="1002" d="M55 981q0 185 130.5 316t316.5 131q184 0 314.5 -130.5t130.5 -316.5q0 -185 -130 -316q-47 -46 -128.5 -88t-186.5 -42q-186 0 -316.5 130.5t-130.5 315.5zM180 981q0 -132 95 -227q21 -21 45 -38v531q-24 -17 -46 -39q-94 -94 -94 -227zM379 1279h150q88 -11 149 -72 q71 -71 71 -173q0 -103 -71 -175q-52 -50 -54 -50l61 -93q8 5 43 39q94 94 94 226q0 133 -94 227t-226 94q-66 0 -123 -23zM443 664q28 -4 59 -4q59 0 68 3l-80 124h-47v-123zM443 913h61q50 0 85.5 35.5t35.5 85.5t-35.5 86t-85.5 36h-61v-243z" />
<glyph unicode="&#xaf;" horiz-adv-x="714" d="M265 1078l25 141h564l-25 -141h-564z" />
<glyph unicode="&#xb0;" horiz-adv-x="434" d="M44 1194q0 70 50.5 121.5t122.5 51.5t122.5 -51.5t50.5 -121.5q0 -72 -50.5 -123t-122.5 -51t-122.5 51t-50.5 123zM170 1194q0 -20 14 -34t33 -14t33 14t14 34q0 19 -13.5 32.5t-33.5 13.5q-19 0 -33 -13.5t-14 -32.5z" />
<glyph unicode="&#xb1;" horiz-adv-x="1098" d="M85 0v141h394v323h-394v140h394v394h140v-394h394v-140h-394v-323h394v-141h-928z" />
<glyph unicode="&#xb2;" horiz-adv-x="500" d="M123 669q400 481 422.5 511t26.5 50q2 11 1 22q-2 33 -26 51q-18 11 -39 11q-10 0 -20 -2q-33 -7 -56 -36q-13 -15 -32 -78l-131 19q24 91 58 133q63 77 153 98q28 5 52 5q63 0 109 -34q70 -48 73 -136q3 -30 -2 -58q-9 -53 -44 -100.5t-262 -318.5h232l-24 -137h-491z " />
<glyph unicode="&#xb3;" horiz-adv-x="517" d="M166 914l144 49q-1 -21 -1 -39q0 -68 18 -91q27 -33 73 -33q48 0 86.5 33t46.5 80q2 11 2 21q0 35 -21 64q-28 38 -97 51l-77 3l24 134q80 1 97 7.5t39 26.5t27 44q4 23 -9 39t-36 16q-22 0 -42 -17q-11 -9 -44 -68l-116 50q42 85 79 117q68 56 148 56t127 -57 q36 -44 36 -101q0 -17 -3 -35q-14 -79 -59 -124l25 -47q43 -59 43 -132q0 -23 -4 -48q-19 -104 -105.5 -178t-191.5 -74q-103 0 -165 74q-44 56 -44 165v14z" />
<glyph unicode="&#xb4;" horiz-adv-x="594" d="M256 1029l233 223h251l-332 -223h-152z" />
<glyph unicode="&#xb5;" horiz-adv-x="853" d="M22 -318l214 1215h141l-113 -645q6 -25 31 -55q55 -64 148 -64q92 0 171 66q51 43 73 92l107 606h139l-158 -897h-139l9 49q-67 -57 -227 -57q-149 0 -192 50l-63 -360h-141z" />
<glyph unicode="&#xb6;" horiz-adv-x="1097" d="M258 1024q34 196 198 335q136 116 308 139h39l1 1h480l-321 -1817h-139l296 1677h-91l-296 -1677h-140l153 866h-97q-197 0 -312 139q-87 106 -87 248q0 43 8 89z" />
<glyph unicode="&#xb7;" horiz-adv-x="304" d="M180 711q7 40 40.5 68t73.5 28q39 0 63 -28q19 -22 19 -51q0 -8 -2 -17q-7 -41 -41 -69t-73 -28q-40 0 -64 28q-18 22 -18 51q0 9 2 18z" />
<glyph unicode="&#x2219;" horiz-adv-x="304" d="M180 711q7 40 40.5 68t73.5 28q39 0 63 -28q19 -22 19 -51q0 -8 -2 -17q-7 -41 -41 -69t-73 -28q-40 0 -64 28q-18 22 -18 51q0 9 2 18z" />
<glyph unicode="&#xb8;" horiz-adv-x="495" d="M90 -32l116 104h167l-79 -56q60 0 92 -29q35 -32 35 -75q0 -10 -2 -21l-1 -10q-25 -81 -110 -129q-53 -30 -122 -30q-43 0 -93 12l42 98q43 -10 73 -10q22 0 37 5q31 10 36 37l1 9q0 33 -35 39q-9 1 -19 1q-32 0 -80 -13z" />
<glyph unicode="&#xb9;" horiz-adv-x="445" d="M122 661l24 137h151l75 424l-26 -15l-97 83l306 196l-121 -688h147l-24 -137h-435z" />
<glyph unicode="&#xba;" horiz-adv-x="579" d="M259 1159q19 109 98 190t175 81h19q96 0 146 -81q36 -59 36 -132q0 -28 -5 -58q-19 -109 -97.5 -189.5t-174.5 -80.5h-19q-96 0 -146 81q-37 58 -37 132q0 27 5 57zM380 1159q-3 -18 -3 -35q0 -38 18 -67q22 -34 75 -38q53 4 87 38q40 41 51 102q3 18 3 35q0 38 -18 68 q-22 34 -74 38q-54 -4 -88 -38q-40 -42 -51 -103z" />
<glyph unicode="&#xbb;" horiz-adv-x="864" d="M47 -48l36 202l316 286l-215 287l35 201l376 -488zM345 -49l36 203l316 286l-215 287l35 202l369 -489z" />
<glyph unicode="&#xbc;" horiz-adv-x="1631" d="M5 0l1671 1421h200l-1673 -1421h-198zM317 661l24 137h151l74 424l-25 -15l-98 83l307 196l-121 -688h147l-24 -137h-435zM836 175l589 760l-110 -623h65l-24 -137h-65l-31 -175h-137l31 175h-318zM1100 312h78l23 131z" />
<glyph unicode="&#xbd;" horiz-adv-x="1631" d="M5 0l1671 1421h200l-1673 -1421h-198zM317 661l24 137h151l74 424l-25 -15l-98 83l307 196l-121 -688h147l-24 -137h-435zM914 0q401 482 423.5 512t25.5 50q2 9 1 22q-1 33 -26 50q-18 12 -39 12q-9 0 -20 -3q-34 -7 -56 -35q-13 -16 -32 -79l-132 20q25 91 59 133 q63 76 153 96q27 7 52 7q62 0 110 -35q69 -48 72 -135q1 -9 1 -17q0 -21 -4 -42q-9 -52 -43.5 -99.5t-261.5 -319.5h231l-24 -137h-490z" />
<glyph unicode="&#xbe;" horiz-adv-x="1631" d="M5 0l1671 1421h200l-1673 -1421h-198zM327 886l144 48q-1 -20 -1 -38q0 -69 19 -92q27 -32 73 -32q47 0 86 32.5t47 79.5q2 12 2 23q0 35 -21 63q-27 37 -98 51l-75 3l23 133q79 1 96 7.5t40 26.5t27 44q4 23 -9.5 39t-36.5 16q-22 0 -41 -16q-11 -10 -44 -68l-117 50 q42 84 80 116q67 56 147 56q81 0 128 -57q36 -44 36 -101q0 -17 -3 -35q-14 -79 -60 -124l26 -47q43 -59 43 -132q0 -23 -4 -48q-18 -104 -105 -177.5t-191 -73.5q-103 0 -166 73q-45 56 -45 166v14zM836 175l589 760l-110 -623h65l-24 -137h-65l-31 -175h-137l31 175h-318z M1100 312h78l23 131z" />
<glyph unicode="&#xbf;" horiz-adv-x="830" d="M95 311q0 35 6 69q20 110 104 210q71 79 231 190q97 77 128 112q37 43 46 92q2 15 3 30q0 38 -25 79l114 110q56 -76 56 -164q-1 -29 -6 -58q-16 -91 -86 -171q-56 -64 -199 -165q-120 -94 -158 -138q-54 -60 -66 -129q-4 -21 -4 -42q0 -95 69 -151q56 -42 125 -42 q20 0 41 3q96 17 165 95q56 64 67 127q2 9 2 33q0 16 -1 39l146 -10v-18q0 -33 -3 -52q-17 -96 -107 -199q-110 -127 -269 -155q-37 -6 -71 -6q-112 0 -197 67q-111 90 -111 244zM574 1326q8 45 45.5 76.5t81.5 31.5q45 0 72 -31q20 -25 20 -57q0 -10 -2 -20 q-8 -45 -45.5 -76.5t-82.5 -31.5q-44 0 -70 32q-21 24 -21 56q0 10 2 20z" />
<glyph unicode="&#xc0;" horiz-adv-x="1162" d="M-1 0l773 1421h123l265 -1421h-149l-112 597h-424l-326 -597h-150zM551 737h322l-83 444zM599 1699h250l154 -223h-153z" />
<glyph unicode="&#xc1;" horiz-adv-x="1162" d="M-1 0l773 1421h123l265 -1421h-149l-112 597h-424l-326 -597h-150zM551 737h322l-83 444zM676 1476l234 223h251l-333 -223h-152z" />
<glyph unicode="&#xc2;" horiz-adv-x="1162" d="M-1 0l773 1421h123l265 -1421h-149l-112 597h-424l-326 -597h-150zM521 1468l302 263h115l222 -263h-178l-127 112l-158 -112h-176zM551 737h322l-83 444z" />
<glyph unicode="&#xc3;" horiz-adv-x="1162" d="M-1 0l773 1421h123l265 -1421h-149l-112 597h-424l-326 -597h-150zM551 737h322l-83 444zM644 1600q14 67 28 93q33 67 93 90q18 8 39 8q50 0 110 -50q37 -32 51 -36v2q0 2 2 6q4 9 16 77l124 -25q-16 -68 -30 -95q-33 -66 -94 -91q-19 -6 -37 -6q-49 0 -110 50 q-33 28 -47 34q-3 -3 -6 -8q-5 -9 -17 -77z" />
<glyph unicode="&#xc4;" horiz-adv-x="1162" d="M-1 0l773 1421h123l265 -1421h-149l-112 597h-424l-326 -597h-150zM551 737h322l-83 444zM636 1657q8 44 45.5 75.5t82.5 31.5q44 0 70 -32q21 -24 21 -55q0 -10 -2 -20q-8 -46 -45.5 -77.5t-81.5 -31.5q-45 0 -71 32q-21 24 -21 56q0 10 2 21zM890 1657q8 44 45.5 75.5 t82.5 31.5q44 0 70 -32q21 -24 21 -55q0 -10 -2 -20q-8 -46 -45.5 -77.5t-81.5 -31.5q-45 0 -71 32q-21 24 -21 56q0 10 2 21z" />
<glyph unicode="&#xc5;" horiz-adv-x="1162" d="M-1 0l773 1421h123l265 -1421h-149l-112 597h-424l-326 -597h-150zM551 737h322l-83 444zM724 1589q10 57 57 97t104 40q56 0 89 -40q24 -31 24 -72q0 -12 -2 -25q-10 -55 -56.5 -95t-102.5 -40q-57 0 -90 40q-25 30 -25 70q0 12 2 25zM843 1587q0 -5 3 -9q4 -5 12 -5 q5 0 11.5 5t7.5 11q1 2 1 4q0 5 -4 9q-5 5 -10 5q-8 0 -14 -5q-7 -7 -7 -15z" />
<glyph unicode="&#xc6;" horiz-adv-x="1470" d="M55 0l869 1421h742l-25 -140h-602l-88 -500h602l-25 -141h-602l-88 -499h602l-25 -141h-742l92 520h-235l-324 -520h-151zM609 660h180l74 417z" />
<glyph unicode="&#xc7;" horiz-adv-x="1379" d="M199 711q53 300 303 513.5t552 213.5q281 0 478 -214l-123 -94q-158 165 -380 165q-242 0 -443.5 -171t-244.5 -413q-10 -57 -10 -109q0 -174 109 -305q141 -172 383 -172q222 0 438 166l89 -95q-262 -205 -533 -212q33 -31 33 -73q0 -10 -2 -20l-2 -10 q-24 -81 -110 -129q-53 -30 -122 -30q-43 0 -93 12l42 98q43 -10 73 -10q22 0 37 5q31 10 36 37l1 9q0 33 -35 39q-8 1 -18 1q-32 0 -81 -13l-58 68l57 51q-150 51 -253 178q-135 163 -135 379q0 65 12 135z" />
<glyph unicode="&#xc8;" horiz-adv-x="967" d="M112 0l251 1421h743l-25 -140h-602l-88 -500h602l-25 -141h-602l-88 -499h602l-25 -141h-743zM516 1776h250l155 -223h-153z" />
<glyph unicode="&#xc9;" horiz-adv-x="967" d="M112 0l251 1421h743l-25 -140h-602l-88 -500h602l-25 -141h-602l-88 -499h602l-25 -141h-743zM594 1553l233 223h251l-331 -223h-153z" />
<glyph unicode="&#xca;" horiz-adv-x="967" d="M112 0l251 1421h743l-25 -140h-602l-88 -500h602l-25 -141h-602l-88 -499h602l-25 -141h-743zM437 1545l303 262h115l221 -262h-177l-127 112l-158 -112h-177z" />
<glyph unicode="&#xcb;" horiz-adv-x="967" d="M112 0l251 1421h743l-25 -140h-602l-88 -500h602l-25 -141h-602l-88 -499h602l-25 -141h-743zM554 1734q8 44 45.5 75.5t82.5 31.5q44 0 70 -31q21 -25 21 -56q0 -10 -2 -20q-8 -46 -45.5 -77.5t-81.5 -31.5q-45 0 -71 31q-21 25 -21 57q0 10 2 21zM809 1734 q8 44 45.5 75.5t82.5 31.5q43 0 69 -31q21 -25 21 -56q0 -10 -2 -20q-8 -46 -45.5 -77.5t-80.5 -31.5q-45 0 -71 31q-21 25 -21 57q0 10 2 21z" />
<glyph unicode="&#xcc;" horiz-adv-x="477" d="M178 0l251 1421h141l-251 -1421h-141zM281 1776h250l155 -223h-153z" />
<glyph unicode="&#xcd;" horiz-adv-x="477" d="M158 0l251 1421h141l-251 -1421h-141zM339 1553l233 223h251l-332 -223h-152z" />
<glyph unicode="&#xce;" horiz-adv-x="458" d="M158 0l251 1421h141l-251 -1421h-141zM182 1545l303 262h115l221 -262h-177l-127 112l-158 -112h-177z" />
<glyph unicode="&#xcf;" horiz-adv-x="371" d="M115 0l251 1421h141l-251 -1421h-141zM256 1734q8 44 45.5 75.5t82.5 31.5q44 0 70 -31q21 -25 21 -56q0 -10 -2 -20q-8 -46 -45.5 -77.5t-81.5 -31.5q-45 0 -71 31q-21 25 -21 57q0 10 2 21zM510 1734q8 44 45.5 75.5t82.5 31.5q44 0 70 -31q21 -25 21 -56q0 -10 -2 -20 q-8 -46 -45.5 -77.5t-81.5 -31.5q-45 0 -71 31q-21 25 -21 57q0 10 2 21z" />
<glyph unicode="&#xd0;" horiz-adv-x="1258" d="M133 640l25 141h123l113 640h283q348 -2 507 -196q135 -165 135 -381q0 -64 -12 -133q-54 -302 -304 -515q-227 -194 -577 -196h-283l113 640h-123zM309 143h141q280 0 468 154q201 171 244 414q10 56 10 108q0 174 -108 306q-134 153 -414 153h-141l-87 -497h472 l-25 -141h-472z" />
<glyph unicode="&#xd1;" horiz-adv-x="1358" d="M109 0l251 1421h145l643 -1196l211 1196h141l-251 -1421h-166l-627 1167l-206 -1167h-141zM732 1523q12 67 27 94q33 66 94 90q17 7 37 7q50 0 110 -50q38 -31 51 -35l1 2q0 2 2 6q4 8 16 76l124 -25q-15 -67 -29 -95q-34 -66 -95 -90q-19 -6 -36 -6q-50 0 -111 49 q-33 28 -47 34q-4 -3 -6 -8q-4 -9 -16 -76z" />
<glyph unicode="&#xd2;" horiz-adv-x="1581" d="M187 713q54 301 305 514.5t552 213.5q302 0 478 -213q135 -164 135 -378q0 -66 -13 -137q-53 -303 -304 -516t-553 -213q-301 0 -477 213q-135 164 -135 381q0 65 12 135zM329 713q-10 -56 -10 -108q0 -174 109 -307q142 -173 384 -173q243 0 445.5 172.5t244.5 415.5 q10 56 10 109q0 173 -109 305q-141 172 -384 172q-242 0 -444.5 -172t-245.5 -414zM823 1776h250l155 -223h-153z" />
<glyph unicode="&#xd3;" horiz-adv-x="1581" d="M187 713q54 301 305 514.5t552 213.5q302 0 478 -213q135 -164 135 -378q0 -66 -13 -137q-53 -303 -304 -516t-553 -213q-301 0 -477 213q-135 164 -135 381q0 65 12 135zM329 713q-10 -56 -10 -108q0 -174 109 -307q142 -173 384 -173q243 0 445.5 172.5t244.5 415.5 q10 56 10 109q0 173 -109 305q-141 172 -384 172q-242 0 -444.5 -172t-245.5 -414zM901 1553l234 223h250l-331 -223h-153z" />
<glyph unicode="&#xd4;" horiz-adv-x="1581" d="M187 713q54 301 305 514.5t552 213.5q302 0 478 -213q135 -164 135 -378q0 -66 -13 -137q-53 -303 -304 -516t-553 -213q-301 0 -477 213q-135 164 -135 381q0 65 12 135zM329 713q-10 -56 -10 -108q0 -174 109 -307q142 -173 384 -173q243 0 445.5 172.5t244.5 415.5 q10 56 10 109q0 173 -109 305q-141 172 -384 172q-242 0 -444.5 -172t-245.5 -414zM744 1545l303 262h114l222 -262h-177l-127 112l-158 -112h-177z" />
<glyph unicode="&#xd5;" horiz-adv-x="1581" d="M187 713q54 301 305 514.5t552 213.5q302 0 478 -213q135 -164 135 -378q0 -66 -13 -137q-53 -303 -304 -516t-553 -213q-301 0 -477 213q-135 164 -135 381q0 65 12 135zM329 713q-10 -56 -10 -108q0 -174 109 -307q142 -173 384 -173q243 0 445.5 172.5t244.5 415.5 q10 56 10 109q0 173 -109 305q-141 172 -384 172q-242 0 -444.5 -172t-245.5 -414zM855 1600q14 67 27 93q34 67 94 90q18 8 39 8q50 0 110 -50q37 -32 50 -36l1 2q0 2 2 6q3 9 15 77l125 -25q-16 -68 -30 -95q-33 -66 -94 -91q-19 -6 -37 -6q-49 0 -110 50q-33 28 -47 34 q-4 -3 -7 -8q-4 -9 -16 -77z" />
<glyph unicode="&#xd6;" horiz-adv-x="1581" d="M187 713q54 301 305 514.5t552 213.5q302 0 478 -213q135 -164 135 -378q0 -66 -13 -137q-53 -303 -304 -516t-553 -213q-301 0 -477 213q-135 164 -135 381q0 65 12 135zM329 713q-10 -56 -10 -108q0 -174 109 -307q142 -173 384 -173q243 0 445.5 172.5t244.5 415.5 q10 56 10 109q0 173 -109 305q-141 172 -384 172q-242 0 -444.5 -172t-245.5 -414zM860 1734q8 44 46 75.5t82 31.5t70 -31q21 -25 21 -56q0 -10 -2 -20q-8 -46 -45.5 -77.5t-81.5 -31.5t-71 31q-21 25 -21 58q0 9 2 20zM1115 1734q8 44 45.5 75.5t82.5 31.5q43 0 69 -31 q21 -25 21 -56q0 -10 -2 -20q-8 -46 -45.5 -77.5t-80.5 -31.5q-45 0 -71 31q-21 25 -21 57q0 10 2 21z" />
<glyph unicode="&#xd7;" horiz-adv-x="1133" d="M188 255l279 279l-279 279l100 98l278 -277l278 277l100 -98l-278 -279l278 -279l-100 -98l-278 277l-278 -277z" />
<glyph unicode="&#xd8;" horiz-adv-x="1653" d="M223 713q54 301 305 514.5t552 213.5q146 0 237 -39l101 156l117 -58l-102 -158q59 -35 125 -114q135 -164 135 -378q0 -66 -13 -137q-53 -303 -304 -516t-553 -213q-145 0 -236 39l-102 -158l-117 60l102 158q-58 35 -123 115q-136 163 -136 380q0 65 12 135zM365 713 q-10 -56 -10 -108q0 -174 109 -307q51 -63 89 -87l680 1061q-61 27 -178 27q-242 0 -444.5 -172t-245.5 -414zM670 152q62 -27 178 -27q243 0 445.5 172.5t244.5 415.5q10 57 10 109q0 173 -108 306q-52 62 -90 84z" />
<glyph unicode="&#xd9;" horiz-adv-x="1174" d="M194 463l169 958h141l-169 -958q-6 -31 -6 -61q0 -99 62 -174q81 -99 220 -99q138 0 253 98.5t139 235.5l169 958h141l-178 -1009q-53 -168 -190 -285q-163 -139 -359 -139q-198 0 -313 139q-87 106 -87 247q0 43 8 89zM620 1776h250l155 -223h-153z" />
<glyph unicode="&#xda;" horiz-adv-x="1174" d="M194 463l169 958h141l-169 -958q-6 -31 -6 -61q0 -99 62 -174q81 -99 220 -99q138 0 253 98.5t139 235.5l169 958h141l-178 -1009q-53 -168 -190 -285q-163 -139 -359 -139q-198 0 -313 139q-87 106 -87 247q0 43 8 89zM698 1553l233 223h251l-332 -223h-152z" />
<glyph unicode="&#xdb;" horiz-adv-x="1174" d="M194 463l169 958h141l-169 -958q-6 -31 -6 -61q0 -99 62 -174q81 -99 220 -99q138 0 253 98.5t139 235.5l169 958h141l-178 -1009q-53 -168 -190 -285q-163 -139 -359 -139q-198 0 -313 139q-87 106 -87 247q0 43 8 89zM542 1545l302 262h115l222 -262h-178l-128 112 l-157 -112h-176z" />
<glyph unicode="&#xdc;" horiz-adv-x="1174" d="M194 463l169 958h141l-169 -958q-6 -31 -6 -61q0 -99 62 -174q81 -99 220 -99q138 0 253 98.5t139 235.5l169 958h141l-178 -1009q-53 -168 -190 -285q-163 -139 -359 -139q-198 0 -313 139q-87 106 -87 247q0 43 8 89zM658 1734q8 44 45.5 75.5t82.5 31.5q44 0 70 -31 q21 -25 21 -56q0 -10 -2 -20q-8 -46 -45.5 -77.5t-81.5 -31.5q-45 0 -72 31q-20 25 -20 57q0 10 2 21zM912 1734q8 44 45.5 75.5t82.5 31.5q44 0 70 -31q21 -25 21 -56q0 -10 -2 -20q-8 -46 -45.5 -77.5t-81.5 -31.5q-45 0 -72 31q-20 25 -20 57q0 10 2 21z" />
<glyph unicode="&#xdd;" horiz-adv-x="1185" d="M283 1421h161l277 -691l521 691h162l-640 -848l-101 -573h-141l101 573zM703 1553l234 223h251l-333 -223h-152z" />
<glyph unicode="&#xde;" horiz-adv-x="979" d="M98 0l251 1421h141l-42 -235h249q165 -23 261 -139q88 -107 88 -248q0 -42 -8 -87q-35 -198 -198.5 -337t-360.5 -139h-198l-42 -236h-141zM305 377h198q138 0 253.5 98t140.5 237q5 32 5 61q0 99 -62 175q-81 97 -219 97h-198z" />
<glyph unicode="&#xdf;" horiz-adv-x="1009" d="M112 0l208 1180q28 73 84 129q102 103 237 118q20 2 39 2q111 0 187 -70q80 -77 80 -191q0 -12 -1 -24q-2 -24 -6 -47q-18 -102 -82 -171l-58 -73q49 -10 131 -93q105 -108 105 -263q0 -17 -1 -35q-1 -27 -6 -53q-26 -148 -143 -268q-139 -141 -323 -161q-26 -3 -51 -3 q-132 0 -246 94l-13 -71h-141zM276 132l73 73q91 -83 189 -83q18 0 35 1q124 14 217 109q78 78 95 177q3 18 5 37q1 11 1 22q0 107 -73 182q-80 83 -170 91.5t-88 71.5q-1 6 1 15q9 52 75 83q45 22 104 85q46 50 57 109q2 10 2 22v14q0 65 -44 106q-41 38 -101 38 q-10 0 -23 -1q-73 -8 -130 -64q-31 -32 -44 -63z" />
<glyph unicode="&#xe0;" d="M157 474q37 207 208.5 352.5t377.5 145.5q207 0 324 -128l9 53h141l-158 -897h-141l18 105q-161 -129 -368 -129q-206 0 -326 146q-93 112 -93 260q0 45 8 92zM302 474q-6 -33 -6 -64q0 -106 66 -185q84 -103 231 -103q146 0 269 104q90 77 127 176l25 144 q-1 100 -65 178q-85 104 -231 104t-268 -104t-148 -250zM491 1252h250l154 -223h-153z" />
<glyph unicode="&#xe1;" d="M157 474q37 207 208.5 352.5t377.5 145.5q207 0 324 -128l9 53h141l-158 -897h-141l18 105q-161 -129 -368 -129q-206 0 -326 146q-93 112 -93 260q0 45 8 92zM302 474q-6 -33 -6 -64q0 -106 66 -185q84 -103 231 -103q146 0 269 104q90 77 127 176l25 144 q-1 100 -65 178q-85 104 -231 104t-268 -104t-148 -250zM599 1029l234 223h251l-333 -223h-152z" />
<glyph unicode="&#xe2;" d="M157 474q37 207 208.5 352.5t377.5 145.5q207 0 324 -128l9 53h141l-158 -897h-141l18 105q-161 -129 -368 -129q-206 0 -326 146q-93 112 -93 260q0 45 8 92zM302 474q-6 -33 -6 -64q0 -106 66 -185q84 -103 231 -103q146 0 269 104q90 77 127 176l25 144 q-1 100 -65 178q-85 104 -231 104t-268 -104t-148 -250zM427 1020l302 263h115l222 -263h-178l-127 113l-158 -113h-176z" />
<glyph unicode="&#xe3;" d="M157 474q37 207 208.5 352.5t377.5 145.5q207 0 324 -128l9 53h141l-158 -897h-141l18 105q-161 -129 -368 -129q-206 0 -326 146q-93 112 -93 260q0 45 8 92zM302 474q-6 -33 -6 -64q0 -106 66 -185q84 -103 231 -103q146 0 269 104q90 77 127 176l25 144 q-1 100 -65 178q-85 104 -231 104t-268 -104t-148 -250zM538 1076q14 67 28 93q34 67 94 90q17 8 38 8q50 0 110 -50q38 -32 51 -36v2q1 2 2 6q4 9 16 77l125 -25q-16 -68 -30 -95q-34 -66 -94 -91q-19 -6 -37 -6q-49 0 -110 50q-34 28 -47 34q-4 -3 -7 -8q-4 -9 -16 -77z " />
<glyph unicode="&#xe4;" d="M157 474q37 207 208.5 352.5t377.5 145.5q207 0 324 -128l9 53h141l-158 -897h-141l18 105q-161 -129 -368 -129q-206 0 -326 146q-93 112 -93 260q0 45 8 92zM302 474q-6 -33 -6 -64q0 -106 66 -185q84 -103 231 -103q146 0 269 104q90 77 127 176l25 144 q-1 100 -65 178q-85 104 -231 104t-268 -104t-148 -250zM544 1210q8 44 45.5 75.5t82.5 31.5q43 0 70 -31q20 -25 20 -56q0 -10 -2 -20q-8 -46 -45.5 -77.5t-80.5 -31.5q-45 0 -72 31q-20 25 -20 57q0 10 2 21zM798 1210q8 44 45.5 75.5t82.5 31.5q44 0 70 -31 q21 -25 21 -56q0 -10 -2 -20q-8 -46 -45.5 -77.5t-81.5 -31.5q-45 0 -72 31q-20 25 -20 57q0 10 2 21z" />
<glyph unicode="&#xe5;" d="M157 474q37 207 208.5 352.5t377.5 145.5q207 0 324 -128l9 53h141l-158 -897h-141l18 105q-161 -129 -368 -129q-206 0 -326 146q-93 112 -93 260q0 45 8 92zM302 474q-6 -33 -6 -64q0 -106 66 -185q84 -103 231 -103q146 0 269 104q90 77 127 176l25 144 q-1 100 -65 178q-85 104 -231 104t-268 -104t-148 -250zM631 1142q10 56 57 96t104 40q56 0 88 -40q25 -31 25 -71q0 -12 -2 -25q-10 -56 -56.5 -95.5t-102.5 -39.5q-57 0 -90 40q-25 30 -25 70q0 12 2 25zM750 1140q0 -5 3 -9q4 -5 12 -5q6 0 12 5t7 11q1 2 1 5q0 5 -3 8 q-5 5 -11 5q-8 0 -13 -5q-8 -7 -8 -15z" />
<glyph unicode="&#xe6;" horiz-adv-x="1970" d="M157 474q37 207 208.5 352.5t377.5 145.5q207 0 324 -128l9 53h141l-13 -74q1 2 4 4q171 145 376 145q207 0 327 -146q80 -97 80 -238q0 -49 -10 -103h-837q-6 -37 -6 -71q0 -110 65 -189q85 -103 231 -103t269 104q21 18 58 55l132 -49q-48 -62 -106 -109 q-170 -147 -378 -147q-205 0 -326 146q-1 2 -2 3l-22 -125h-141l18 105q-161 -129 -368 -129q-206 0 -326 146q-93 112 -93 260q0 45 8 92zM302 474q-6 -33 -6 -64q0 -106 66 -185q84 -103 231 -103q146 0 269 104q90 77 127 176l25 144q-1 100 -65 178q-85 104 -231 104 t-268 -104t-148 -250zM1200 627h644q-5 38 -54 97q-85 104 -231 104t-269 -104q-73 -63 -90 -97z" />
<glyph unicode="&#xe7;" horiz-adv-x="1033" d="M135 475q37 206 208.5 351.5t377.5 145.5q207 0 326 -146q25 -29 63 -95l-152 -52q-20 32 -31 46q-85 103 -231 103t-267.5 -103.5t-147.5 -249.5q-6 -34 -6 -65q0 -106 66 -185q84 -103 230 -103t269 104q15 13 47 45l132 -53q-60 -66 -95 -95q-131 -113 -285 -139 q32 -31 32 -73q0 -10 -2 -20l-2 -10q-25 -81 -110 -129q-53 -30 -122 -30q-43 0 -93 12l42 98q43 -10 73 -10q22 0 37 5q31 10 36 37l1 9q0 33 -35 39q-9 1 -19 1q-32 0 -80 -13l-58 68l41 37q-94 36 -161 117q-92 112 -92 261q0 44 8 92z" />
<glyph unicode="&#xe8;" horiz-adv-x="1068" d="M135 474q37 207 208.5 352.5t377.5 145.5q207 0 327 -146q79 -96 79 -237q0 -49 -10 -104h-837q-6 -36 -6 -69q0 -112 66 -191q84 -103 231 -103q146 0 269 104q21 18 57 55l132 -49q-48 -62 -106 -109q-170 -147 -377 -147q-206 0 -326 146q-93 112 -93 260q0 45 8 92z M336 627h644q-5 38 -53 97q-85 104 -231 104q-147 0 -269 -104q-73 -63 -91 -97zM467 1252h250l154 -223h-153z" />
<glyph unicode="&#xe9;" horiz-adv-x="1068" d="M135 474q37 207 208.5 352.5t377.5 145.5q207 0 327 -146q79 -96 79 -237q0 -49 -10 -104h-837q-6 -36 -6 -69q0 -112 66 -191q84 -103 231 -103q146 0 269 104q21 18 57 55l132 -49q-48 -62 -106 -109q-170 -147 -377 -147q-206 0 -326 146q-93 112 -93 260q0 45 8 92z M336 627h644q-5 38 -53 97q-85 104 -231 104q-147 0 -269 -104q-73 -63 -91 -97zM575 1029l234 223h250l-332 -223h-152z" />
<glyph unicode="&#xea;" horiz-adv-x="1068" d="M135 474q37 207 208.5 352.5t377.5 145.5q207 0 327 -146q79 -96 79 -237q0 -49 -10 -104h-837q-6 -36 -6 -69q0 -112 66 -191q84 -103 231 -103q146 0 269 104q21 18 57 55l132 -49q-48 -62 -106 -109q-170 -147 -377 -147q-206 0 -326 146q-93 112 -93 260q0 45 8 92z M336 627h644q-5 38 -53 97q-85 104 -231 104q-147 0 -269 -104q-73 -63 -91 -97zM402 1020l303 263h115l221 -263h-177l-127 113l-158 -113h-177z" />
<glyph unicode="&#xeb;" horiz-adv-x="1068" d="M135 474q37 207 208.5 352.5t377.5 145.5q207 0 327 -146q79 -96 79 -237q0 -49 -10 -104h-837q-6 -36 -6 -69q0 -112 66 -191q84 -103 231 -103q146 0 269 104q21 18 57 55l132 -49q-48 -62 -106 -109q-170 -147 -377 -147q-206 0 -326 146q-93 112 -93 260q0 45 8 92z M336 627h644q-5 38 -53 97q-85 104 -231 104q-147 0 -269 -104q-73 -63 -91 -97zM519 1210q8 44 45.5 75.5t82.5 31.5q44 0 71 -31q20 -25 20 -56q0 -10 -2 -20q-8 -46 -45.5 -77.5t-81.5 -31.5q-45 0 -71 32q-21 24 -21 56q0 10 2 21zM774 1210q8 44 45.5 75.5t82.5 31.5 q43 0 70 -31q20 -25 20 -56q0 -10 -2 -20q-8 -46 -45.5 -77.5t-80.5 -31.5q-45 0 -71 32q-21 24 -21 56q0 10 2 21z" />
<glyph unicode="&#xec;" horiz-adv-x="522" d="M201 0l158 897h140l-158 -897h-140zM212 1252h250l154 -223h-153z" />
<glyph unicode="&#xed;" horiz-adv-x="522" d="M181 0l158 897h140l-158 -897h-140zM269 1029l234 223h251l-333 -223h-152z" />
<glyph unicode="&#xee;" horiz-adv-x="503" d="M112 1020l302 263h115l222 -263h-177l-127 113l-158 -113h-177zM180 0l158 897h140l-158 -897h-140z" />
<glyph unicode="&#xef;" horiz-adv-x="416" d="M139 0l158 897h140l-158 -897h-140zM186 1210q8 44 45.5 75.5t82.5 31.5q44 0 70 -31q21 -25 21 -56q0 -10 -2 -20q-8 -46 -45.5 -77.5t-81.5 -31.5q-45 0 -71 31q-21 25 -21 57q0 10 2 21zM440 1210q8 44 45.5 75.5t82.5 31.5q44 0 70 -31q21 -25 21 -56q0 -10 -2 -20 q-8 -46 -45.5 -77.5t-81.5 -31.5q-45 0 -71 31q-21 25 -21 57q0 10 2 21z" />
<glyph unicode="&#xf0;" horiz-adv-x="1139" d="M155 474q37 207 208.5 352.5t377.5 145.5l-81 87l-145 -124h-200l263 224l-183 220h198l102 -121l138 118h200l-256 -217l291 -332q91 -111 91 -258q0 -46 -9 -95q-36 -206 -206.5 -352t-377.5 -146q-206 0 -326 146q-93 112 -93 260q0 45 8 92zM300 474q-6 -33 -6 -64 q0 -106 66 -185q84 -103 231 -103q146 0 268 103t147 249q6 34 6 66q0 104 -65 184q-85 104 -231 104t-268 -104t-148 -250z" />
<glyph unicode="&#xf1;" horiz-adv-x="916" d="M99 0l158 897h141l-1 -8q68 58 220 58q161 0 245 -102q65 -79 65 -187q0 -33 -6 -68l-104 -590h-140l103 582q4 21 4 40q0 68 -44 118q-56 66 -148 66t-170 -64q-44 -37 -64 -70l-118 -672h-141zM431 1076q14 67 27 93q34 67 94 90q17 8 38 8q50 0 111 -50q37 -32 49 -36 l4 8q3 9 15 77l125 -25q-16 -68 -30 -95q-34 -66 -94 -91q-19 -6 -37 -6q-49 0 -110 50q-34 28 -48 34q-4 -3 -6 -8q-4 -9 -16 -77z" />
<glyph unicode="&#xf2;" horiz-adv-x="1139" d="M155 474q37 207 208.5 352.5t377.5 145.5q207 0 327 -146q91 -111 91 -258q0 -45 -9 -94q-36 -206 -206.5 -352t-377.5 -146q-206 0 -326 146q-93 112 -93 260q0 45 8 92zM300 474q-6 -33 -6 -64q0 -106 66 -185q84 -103 231 -103q146 0 268 103t147 249q6 34 6 66 q0 104 -65 184q-85 104 -231 104t-268 -104t-148 -250zM510 1252h250l154 -223h-153z" />
<glyph unicode="&#xf3;" horiz-adv-x="1139" d="M155 474q37 207 208.5 352.5t377.5 145.5q207 0 327 -146q91 -111 91 -258q0 -45 -9 -94q-36 -206 -206.5 -352t-377.5 -146q-206 0 -326 146q-93 112 -93 260q0 45 8 92zM300 474q-6 -33 -6 -64q0 -106 66 -185q84 -103 231 -103q146 0 268 103t147 249q6 34 6 66 q0 104 -65 184q-85 104 -231 104t-268 -104t-148 -250zM587 1029l234 223h251l-333 -223h-152z" />
<glyph unicode="&#xf4;" horiz-adv-x="1139" d="M155 474q37 207 208.5 352.5t377.5 145.5q207 0 327 -146q91 -111 91 -258q0 -45 -9 -94q-36 -206 -206.5 -352t-377.5 -146q-206 0 -326 146q-93 112 -93 260q0 45 8 92zM300 474q-6 -33 -6 -64q0 -106 66 -185q84 -103 231 -103q146 0 268 103t147 249q6 34 6 66 q0 104 -65 184q-85 104 -231 104t-268 -104t-148 -250zM432 1020l302 263h115l222 -263h-178l-127 113l-158 -113h-176z" />
<glyph unicode="&#xf5;" horiz-adv-x="1139" d="M155 474q37 207 208.5 352.5t377.5 145.5q207 0 327 -146q91 -111 91 -258q0 -45 -9 -94q-36 -206 -206.5 -352t-377.5 -146q-206 0 -326 146q-93 112 -93 260q0 45 8 92zM300 474q-6 -33 -6 -64q0 -106 66 -185q84 -103 231 -103q146 0 268 103t147 249q6 34 6 66 q0 104 -65 184q-85 104 -231 104t-268 -104t-148 -250zM542 1076q14 67 28 93q34 67 94 90q17 8 38 8q50 0 110 -50q37 -32 50 -36q0 2 3 8q4 9 16 77l125 -25q-16 -68 -30 -95q-34 -66 -94 -91q-19 -6 -37 -6q-49 0 -110 50q-35 28 -48 34q-4 -3 -6 -8q-4 -9 -16 -77z" />
<glyph unicode="&#xf6;" horiz-adv-x="1139" d="M155 474q37 207 208.5 352.5t377.5 145.5q207 0 327 -146q91 -111 91 -258q0 -45 -9 -94q-36 -206 -206.5 -352t-377.5 -146q-206 0 -326 146q-93 112 -93 260q0 45 8 92zM300 474q-6 -33 -6 -64q0 -106 66 -185q84 -103 231 -103q146 0 268 103t147 249q6 34 6 66 q0 104 -65 184q-85 104 -231 104t-268 -104t-148 -250zM547 1210q8 44 45.5 75.5t82.5 31.5q44 0 71 -31q20 -25 20 -56q0 -10 -2 -20q-8 -46 -45.5 -77.5t-81.5 -31.5q-45 0 -71 31q-21 25 -21 57q0 10 2 21zM801 1210q8 44 46 75.5t82 31.5t71 -31q20 -25 20 -56 q0 -10 -2 -20q-8 -46 -45.5 -77.5t-81.5 -31.5t-71 31q-21 25 -21 58q0 9 2 20z" />
<glyph unicode="&#xf7;" horiz-adv-x="1098" d="M85 464v140h928v-140h-928zM441 238q0 46 32 77t77 31q44 0 76 -31t32 -77q0 -45 -32 -76t-76 -31q-45 0 -77 31t-32 76zM441 831q0 45 32 76.5t77 31.5q44 0 76 -31.5t32 -76.5t-32 -76.5t-76 -31.5q-45 0 -77 31.5t-32 76.5z" />
<glyph unicode="&#xf8;" horiz-adv-x="1105" d="M116 -110l144 192q-11 9 -38 41q-92 112 -92 260q0 44 8 92q37 207 208.5 352.5t377.5 145.5q116 0 182 -34l135 181l113 -65l-140 -186q10 -9 37 -42q91 -111 91 -257q0 -46 -9 -95q-36 -206 -206.5 -352t-377.5 -146q-117 0 -181 34l-137 -180zM283 475q-6 -34 -6 -66 q0 -105 65 -183q12 -14 13 -18l455 604q-32 16 -111 16q-147 0 -268.5 -103.5t-147.5 -249.5zM463 138q31 -15 111 -15q146 0 267.5 102.5t147.5 249.5q6 34 6 66q0 104 -65 184l-12 16z" />
<glyph unicode="&#xf9;" horiz-adv-x="916" d="M148 346l98 552h141l-96 -545q-4 -21 -4 -41q0 -66 43 -117q55 -67 155 -67q92 0 170.5 66t95.5 159l96 545h141l-98 -552q-30 -155 -150 -256q-119 -102 -279 -102q-170 0 -253 101q-65 79 -65 190q0 32 5 67zM398 1252h250l155 -223h-153z" />
<glyph unicode="&#xfa;" horiz-adv-x="916" d="M148 346l98 552h141l-96 -545q-4 -21 -4 -41q0 -66 43 -117q55 -67 155 -67q92 0 170.5 66t95.5 159l96 545h141l-98 -552q-30 -155 -150 -256q-119 -102 -279 -102q-170 0 -253 101q-65 79 -65 190q0 32 5 67zM476 1029l233 223h251l-331 -223h-153z" />
<glyph unicode="&#xfb;" horiz-adv-x="916" d="M148 346l98 552h141l-96 -545q-4 -21 -4 -41q0 -66 43 -117q55 -67 155 -67q92 0 170.5 66t95.5 159l96 545h141l-98 -552q-30 -155 -150 -256q-119 -102 -279 -102q-170 0 -253 101q-65 79 -65 190q0 32 5 67zM320 1020l303 263h115l221 -263h-177l-127 113l-158 -113 h-177z" />
<glyph unicode="&#xfc;" horiz-adv-x="916" d="M148 346l98 552h141l-96 -545q-4 -21 -4 -41q0 -66 43 -117q55 -67 155 -67q92 0 170.5 66t95.5 159l96 545h141l-98 -552q-30 -155 -150 -256q-119 -102 -279 -102q-170 0 -253 101q-65 79 -65 190q0 32 5 67zM436 1210q7 44 45 75.5t83 31.5q44 0 70 -32q20 -24 20 -57 q0 -9 -1 -18q-8 -46 -46 -77.5t-82 -31.5q-45 0 -71 31q-20 25 -20 57q0 10 2 21zM691 1210q7 44 45 75.5t83 31.5q43 0 69 -32q20 -24 20 -57q0 -9 -1 -18q-8 -46 -46 -77.5t-81 -31.5q-45 0 -71 31q-20 25 -20 57q0 10 2 21z" />
<glyph unicode="&#xfd;" horiz-adv-x="849" d="M56 -317l324 504l-207 710h156l158 -538l350 538h156l-477 -741h-1l-303 -473h-156zM443 1029l234 223h250l-332 -223h-152z" />
<glyph unicode="&#xfe;" horiz-adv-x="1136" d="M36 -318l307 1742h141l-102 -578q161 125 367 125t326 -145q93 -112 93 -260q0 -44 -8 -92q-37 -206 -208.5 -352t-377.5 -146t-278 88q-30 37 -43 49l-76 -431h-141zM303 397q1 -97 65 -172q85 -104 231 -104t268 103t148 250q6 33 6 64q0 106 -66 186q-85 104 -231 104 t-268 -104q-91 -77 -126 -174z" />
<glyph unicode="&#xff;" horiz-adv-x="849" d="M56 -317l324 504l-207 710h156l158 -538l350 538h156l-477 -741h-1l-303 -473h-156zM403 1210q8 44 45.5 75.5t82.5 31.5q43 0 69 -31q21 -25 21 -56q0 -10 -2 -20q-8 -46 -45.5 -77.5t-80.5 -31.5q-45 0 -71 31q-21 25 -21 57q0 10 2 21zM657 1210q8 44 45.5 75.5 t82.5 31.5q44 0 70 -31q21 -25 21 -56q0 -10 -2 -20q-8 -46 -45.5 -77.5t-81.5 -31.5q-45 0 -71 31q-21 25 -21 57q0 10 2 21z" />
<glyph unicode="&#x152;" horiz-adv-x="2004" d="M213 713q54 301 305 514.5t552 213.5q120 0 219 -20h877l-24 -140h-629l35 -53q138 -168 138 -366q0 -40 -6 -81h373l-24 -141h-374q-56 -245 -288 -442l-57 -57h631l-25 -141h-878q-105 -16 -225 -16q-301 0 -477 213q-135 164 -135 381q0 65 12 135zM355 713 q-10 -56 -10 -108q0 -174 110 -307q141 -173 383 -173q112 0 214 36q41 14 79 33q78 40 152 104q187 158 238 376q4 18 7 39q3 17 5 34q5 38 5 74q0 175 -108 307q-52 62 -117 101q-31 19 -67 34q-89 36 -201 36q-242 0 -444.5 -172t-245.5 -414z" />
<glyph unicode="&#x153;" horiz-adv-x="1822" d="M149 474q37 207 208.5 352.5t377.5 145.5q207 0 337 -158q187 158 393 158t327 -146q82 -101 82 -250q0 -43 -7 -91l-720 1q-25 -140 -88 -228q6 -9 25 -32q85 -104 231 -104t269 104q21 18 58 55l129 -50q-46 -60 -103 -108q-172 -147 -378 -147t-337 159 q-186 -159 -393 -159q-206 0 -326 146q-93 112 -93 260q0 45 8 92zM294 474q-6 -33 -6 -64q0 -106 66 -185q84 -103 231 -103q146 0 268 103t147 249q6 34 6 66q0 104 -65 184q-85 104 -231 104t-268 -104t-148 -250zM1135 690q12 -32 15 -63h575q-5 38 -54 97 q-85 104 -231 104t-269 -104q-27 -24 -36 -34z" />
<glyph unicode="&#x178;" horiz-adv-x="1185" d="M283 1421h161l277 -691l521 691h162l-640 -848l-101 -573h-141l101 573zM663 1734q8 44 45.5 75.5t82.5 31.5q43 0 69 -31q21 -25 21 -56q0 -10 -2 -20q-8 -46 -45.5 -77.5t-80.5 -31.5q-45 0 -71 31q-21 25 -21 57q0 10 2 21zM917 1734q8 44 45.5 75.5t82.5 31.5 q44 0 70 -31q21 -25 21 -56q0 -10 -2 -20q-8 -46 -45.5 -77.5t-81.5 -31.5q-45 0 -71 31q-21 25 -21 57q0 10 2 21z" />
<glyph unicode="&#x2c6;" horiz-adv-x="789" d="M255 1020l302 263h115l222 -263h-177l-127 113l-158 -113h-177z" />
<glyph unicode="&#x2dc;" horiz-adv-x="584" d="M265 1076q14 67 27 93q34 67 94 90q18 8 39 8q50 0 110 -50q37 -32 50 -36q0 2 3 8q4 9 16 77l124 -25q-16 -68 -30 -95q-33 -66 -94 -91q-19 -6 -37 -6q-49 0 -110 50q-34 28 -48 34q-2 -3 -5 -8q-5 -9 -17 -77z" />
<glyph unicode="&#x2013;" horiz-adv-x="718" d="M82 464l25 140h718l-25 -140h-718z" />
<glyph unicode="&#x2014;" horiz-adv-x="1268" d="M82 464l25 140h1268l-25 -140h-1268z" />
<glyph unicode="&#x2018;" horiz-adv-x="319" d="M259 1197q4 24 16 47l127 186h120l-75 -135l11 -20q20 -24 20 -57q0 -10 -2 -21q-8 -45 -45.5 -76t-81.5 -31q-45 0 -71 31q-21 24 -21 56q0 10 2 20z" />
<glyph unicode="&#x2019;" horiz-adv-x="319" d="M240 1090l75 135l-9 21q-21 24 -21 57q0 9 2 20q8 46 45.5 76.5t81.5 30.5t70 -30q21 -24 21 -57q0 -9 -2 -20q-4 -24 -16 -46l-126 -187h-121z" />
<glyph unicode="&#x201a;" horiz-adv-x="319" d="M24 -138l75 135l-9 21q-21 24 -21 56q0 10 2 20q8 46 45.5 77t81.5 31t70 -31q21 -24 21 -56q0 -10 -2 -21q-4 -23 -16 -45l-126 -187h-121z" />
<glyph unicode="&#x201c;" horiz-adv-x="552" d="M259 1197q4 24 16 47l127 186h120l-75 -135l11 -20q20 -24 20 -57q0 -10 -2 -21q-8 -45 -45.5 -76t-81.5 -31q-45 0 -71 31q-21 24 -21 56q0 10 2 20zM493 1197q4 24 16 47l126 186h121l-75 -135l11 -20q20 -24 20 -57q0 -10 -2 -21q-8 -45 -45.5 -76t-82.5 -31t-71 32 q-20 24 -20 55q0 10 2 20z" />
<glyph unicode="&#x201d;" horiz-adv-x="552" d="M240 1090l75 134l-11 21q-19 23 -19 56q0 10 2 21q8 45 45.5 76.5t82.5 31.5q44 0 70 -32q20 -24 20 -56q0 -9 -2 -20q-4 -24 -16 -46l-125 -186h-122zM474 1090l75 134l-11 21q-19 23 -19 56q0 10 2 21q8 45 45.5 76.5t81.5 31.5t70 -32q21 -24 21 -56q0 -10 -2 -20 q-4 -24 -16 -46l-126 -186h-121z" />
<glyph unicode="&#x201e;" horiz-adv-x="552" d="M23 -140l75 134l-11 21q-19 23 -19 56q0 10 2 21q8 45 45.5 76.5t82.5 31.5q44 0 70 -32q20 -24 20 -56q0 -9 -2 -20q-4 -24 -16 -46l-125 -186h-122zM257 -140l75 134l-11 21q-19 23 -19 56q0 10 2 21q8 45 45.5 76.5t81.5 31.5t70 -32q21 -24 21 -56q0 -10 -2 -20 q-4 -24 -16 -46l-126 -186h-121z" />
<glyph unicode="&#x2022;" horiz-adv-x="2620" d="M75 645v28q224 62 294 146q74 106 174 106q140 0 140 -78q0 -24 -20 -48q22 -134 112 -134l-70 302l336 392h546l308 -392l-64 -302q126 42 126 134q-20 24 -20 48q0 78 140 78q104 0 210 -140q68 -56 258 -112q0 -28 -20 -28q0 -14 6 -22q-6 -34 -56 -43q-18 -3 -42 -3 q-44 0 -108 10q24 -20 136 -20q21 4 37 4t27 -4q0 -54 -204 -84l-126 8q114 -56 190 -56h42v-8q-52 -70 -190 -70q-70 0 -160 36q0 -44 160 -98q0 -28 -76 -36q-44 0 -190 64q0 -34 70 -92q-5 -3 -17 -3q-36 0 -137 31l22 -62l-28 -8q-38 0 -134 106l-62 -294h-742l-84 294 q-74 -94 -120 -106l-28 8l14 62q-86 -42 -132 -42l-14 22q63 38 63 76q0 4 -1 8q-128 -64 -188 -64q-70 8 -70 36q154 52 154 95v3q-72 -36 -154 -36h-28q-110 0 -162 70v8h42q76 0 133 17t57 39l-140 -8q-190 34 -190 84l14 8l50 -8q47 -2 81 -2q67 0 81 8l-156 11 q-70 5 -76 33l6 20zM1078 571q48 -72 99 -72q23 0 47 15q75 46 120 60q-45 11 -50.5 23.5t-5.5 18.5v162q0 39 50 76q17 -37 43 -178q5 -30 5 -62q0 -116 -73 -250q115 101 178 199q51 80 51 155q0 17 -2 34q-14 91 -28 138q-14 48 -25 107l-163 -59q-16 -9 -36 -17v3 q-6 70 -31 73q-53 -37 -176 -96q47 -14 47 -44v-252q0 -6 -11 -13t-39 -21z" />
<glyph unicode="&#x2026;" horiz-adv-x="2051" d="M115 96q8 45 45.5 76.5t82.5 31.5q44 0 71 -32q20 -24 20 -56q0 -10 -2 -20q-8 -45 -45.5 -76.5t-81.5 -31.5q-45 0 -71 32q-21 24 -21 56q0 10 2 20zM771 96q8 45 45.5 76.5t81.5 31.5t70 -32q21 -24 21 -56q0 -10 -2 -20q-8 -45 -45.5 -76.5t-81.5 -31.5t-70 32 q-21 24 -21 56q0 10 2 20zM1426 96q8 45 45.5 76.5t82.5 31.5q44 0 70 -32q21 -24 21 -56q0 -10 -2 -20q-8 -45 -45.5 -76.5t-81.5 -31.5q-45 0 -71 32q-21 24 -21 56q0 10 2 20z" />
<glyph unicode="&#x2039;" horiz-adv-x="566" d="M133 440l542 489l-35 -202l-319 -287l218 -286l-36 -203z" />
<glyph unicode="&#x203a;" horiz-adv-x="566" d="M46 -49l36 203l317 286l-216 287l35 202l370 -489z" />
<glyph unicode="&#x20ac;" horiz-adv-x="1106" d="M87 496l52 140h117l6 38h-109l51 141h83l19 109q37 205 204 351t367 146q201 0 332 -168l-117 -104q-99 127 -240 127t-259.5 -103t-144.5 -249l-19 -109h547l-53 -141h-519l-6 -38h513l-54 -140h-484l-4 -22q-6 -35 -6 -68q0 -104 62 -182q82 -102 223 -102t258 103 q75 64 122 166h145q-69 -168 -184 -268q-166 -147 -367 -147q-200 0 -316 146q-88 112 -88 258q0 45 9 94l4 22h-144z" />
<glyph unicode="&#x2122;" horiz-adv-x="1144" d="M98 1320v108h433l210 -321l208 321h97v-621h-112v396l-193 -298l-195 298v-396h-111v513h-70v-513h-112v513h-155z" />
<glyph unicode="&#xe000;" horiz-adv-x="895" d="M0 895h895v-895h-895v895z" />
<glyph unicode="&#xf001;" horiz-adv-x="720" d="M106 0l133 756h-84l25 141h84l35 195q25 107 114 184q93 73 196 73q53 0 136 -30l-70 -131q-56 26 -83 26q-47 0 -98 -39q-43 -37 -56 -91l-33 -187h170l-25 -141h-170l-133 -756h-141zM473 0l158 897h140l-158 -897h-140zM626 1085q8 44 45.5 75.5t82.5 31.5 q43 0 70 -31q20 -25 20 -56q0 -10 -2 -20q-8 -46 -45.5 -77.5t-80.5 -31.5q-45 0 -71 32q-21 24 -21 56q0 10 2 21z" />
<glyph unicode="&#xfb01;" horiz-adv-x="720" d="M106 0l133 756h-84l25 141h84l35 195q25 107 114 184q93 73 196 73q53 0 136 -30l-70 -131q-56 26 -83 26q-47 0 -98 -39q-43 -37 -56 -91l-33 -187h170l-25 -141h-170l-133 -756h-141zM473 0l158 897h140l-158 -897h-140zM626 1085q8 44 45.5 75.5t82.5 31.5 q43 0 70 -31q20 -25 20 -56q0 -10 -2 -20q-8 -46 -45.5 -77.5t-80.5 -31.5q-45 0 -71 32q-21 24 -21 56q0 10 2 21z" />
<glyph unicode="&#xf002;" horiz-adv-x="729" d="M106 0l133 756h-84l25 141h84l35 195q25 107 114 184q93 73 196 73q42 0 102 -19l16 91h141l-251 -1421h-141l215 1217l-16 -29q-56 26 -83 26q-47 0 -98 -39q-43 -37 -56 -91l-33 -187h170l-25 -141h-170l-133 -756h-141z" />
<glyph unicode="&#xfb02;" horiz-adv-x="729" d="M106 0l133 756h-84l25 141h84l35 195q25 107 114 184q93 73 196 73q42 0 102 -19l16 91h141l-251 -1421h-141l215 1217l-16 -29q-56 26 -83 26q-47 0 -98 -39q-43 -37 -56 -91l-33 -187h170l-25 -141h-170l-133 -756h-141z" />
<glyph unicode="&#xfb03;" horiz-adv-x="1253" d="M106 0l133 756h-84l25 141h84l35 195q25 107 114 184q93 73 196 73q53 0 136 -30l-70 -131q-56 26 -83 26q-47 0 -98 -39q-43 -37 -56 -91l-33 -187h170l-25 -141h-170l-133 -756h-141zM545 0l133 756h-84l25 141h84l35 195q25 107 114 184q93 73 196 73q53 0 136 -30 l-70 -131q-56 26 -83 26q-47 0 -98 -39q-43 -37 -56 -91l-33 -187h170l-25 -141h-170l-133 -756h-141zM995 0l158 897h140l-158 -897h-140zM1148 1085q8 44 45.5 75.5t82.5 31.5q44 0 70 -32q21 -24 21 -55q0 -10 -2 -20q-8 -46 -45.5 -77.5t-81.5 -31.5q-45 0 -72 32 q-20 24 -20 56q0 10 2 21z" />
<glyph unicode="&#xfb04;" horiz-adv-x="1239" d="M106 0l133 756h-84l25 141h84l35 195q25 107 114 184q93 73 196 73q53 0 136 -30l-70 -131q-56 26 -83 26q-47 0 -98 -39q-43 -37 -56 -91l-33 -187h170l-25 -141h-170l-133 -756h-141zM545 0l133 756h-84l25 141h84l35 195q25 107 114 184q93 73 196 73q53 0 136 -30 l-70 -131q-56 26 -83 26q-47 0 -98 -39q-43 -37 -56 -91l-33 -187h170l-25 -141h-170l-133 -756h-141zM988 0l251 1421h141l-251 -1421h-141z" />
</font>
</defs>
</svg>
